<svg width="121" height="121" viewBox="0 0 121 121" fill="none" xmlns="http://www.w3.org/2000/svg">
<rect width="121" height="121" rx="8.58156" fill="#D62C2B"/>
<path d="M66.75 27H39.75C37.9598 27 36.2429 27.7059 34.977 28.9624C33.7112 30.2189 33 31.923 33 33.7V87.3C33 89.0769 33.7112 90.7811 34.977 92.0376C36.2429 93.2941 37.9598 94 39.75 94H80.25C82.0402 94 83.7571 93.2941 85.023 92.0376C86.2888 90.7811 87 89.0769 87 87.3V47.1M66.75 27L87 47.1M66.75 27V47.1H87M73.5 63.85H46.5M73.5 77.25H46.5M53.25 50.45H46.5" stroke="white" stroke-width="6" stroke-linecap="round" stroke-linejoin="round"/>
</svg>
