<svg width="121" height="121" viewBox="0 0 121 121" fill="none" xmlns="http://www.w3.org/2000/svg">
<rect width="121" height="121" rx="8.58156" fill="#D62C2B"/>
<g filter="url(#filter0_bi_305_11)">
<path d="M60.4999 26V95M76.1818 38.5455H52.659C49.7477 38.5455 46.9556 39.702 44.8969 41.7606C42.8383 43.8193 41.6818 46.6114 41.6818 49.5227C41.6818 52.4341 42.8383 55.2262 44.8969 57.2848C46.9556 59.3435 49.7477 60.5 52.659 60.5H68.3409C71.2522 60.5 74.0443 61.6565 76.103 63.7152C78.1616 65.7738 79.3181 68.5659 79.3181 71.4773C79.3181 74.3886 78.1616 77.1807 76.103 79.2394C74.0443 81.298 71.2522 82.4545 68.3409 82.4545H41.6818" stroke="white" stroke-width="6" stroke-linecap="round" stroke-linejoin="round"/>
</g>
<defs>
<filter id="filter0_bi_305_11" x="-372.168" y="-387.85" width="865.335" height="896.699" filterUnits="userSpaceOnUse" color-interpolation-filters="sRGB">
<feFlood flood-opacity="0" result="BackgroundImageFix"/>
<feGaussianBlur in="BackgroundImageFix" stdDeviation="205.425"/>
<feComposite in2="SourceAlpha" operator="in" result="effect1_backgroundBlur_305_11"/>
<feBlend mode="normal" in="SourceGraphic" in2="effect1_backgroundBlur_305_11" result="shape"/>
<feColorMatrix in="SourceAlpha" type="matrix" values="0 0 0 0 0 0 0 0 0 0 0 0 0 0 0 0 0 0 127 0" result="hardAlpha"/>
<feOffset dy="2.97179"/>
<feGaussianBlur stdDeviation="2.97179"/>
<feComposite in2="hardAlpha" operator="arithmetic" k2="-1" k3="1"/>
<feColorMatrix type="matrix" values="0 0 0 0 1 0 0 0 0 1 0 0 0 0 1 0 0 0 0.1 0"/>
<feBlend mode="normal" in2="shape" result="effect2_innerShadow_305_11"/>
</filter>
</defs>
</svg>
