<svg width="121" height="121" viewBox="0 0 121 121" fill="none" xmlns="http://www.w3.org/2000/svg">
<rect width="121" height="121" rx="8.58156" fill="#D62C2B"/>
<path d="M71.9 87V40.7778C71.9 39.2454 71.2995 37.7758 70.2305 36.6923C69.1615 35.6087 67.7117 35 66.2 35H54.8C53.2883 35 51.8384 35.6087 50.7695 36.6923C49.7005 37.7758 49.1 39.2454 49.1 40.7778V87M37.7 46.5556H83.3C86.448 46.5556 89 49.1424 89 52.3333V81.2222C89 84.4132 86.448 87 83.3 87H37.7C34.552 87 32 84.4132 32 81.2222V52.3333C32 49.1424 34.552 46.5556 37.7 46.5556Z" stroke="white" stroke-width="6" stroke-linecap="round" stroke-linejoin="round"/>
</svg>
