<svg width="230" height="125" viewBox="0 0 230 125" fill="none" xmlns="http://www.w3.org/2000/svg">
<g filter="url(#filter0_d_332_327)">
<path d="M29.6232 32.2949V1.04692H40.1232C41.9712 1.04692 43.3432 1.50892 44.2392 2.43292C45.1632 3.35692 45.6252 4.85492 45.6252 6.92692V10.3709C45.6252 11.6869 45.3032 12.7509 44.6592 13.5629C44.0432 14.3749 43.3992 14.8929 42.7272 15.1169C45.0512 15.8449 46.2132 17.6229 46.2132 20.4509V25.0709C46.2132 29.8869 44.3232 32.2949 40.5432 32.2949H29.6232ZM37.6872 18.5189H36.5532V26.7509H37.8132C38.2332 26.7509 38.5272 26.6389 38.6952 26.4149C38.8912 26.1629 38.9892 25.7149 38.9892 25.0709V20.1149C38.9892 19.5269 38.8912 19.1209 38.6952 18.8969C38.5272 18.6449 38.1912 18.5189 37.6872 18.5189ZM37.5612 6.38092H36.5532V13.1009H37.5192C38.3592 13.1009 38.7792 12.5829 38.7792 11.5469V7.85092C38.7792 7.34692 38.6952 6.98292 38.5272 6.75892C38.3592 6.50692 38.0372 6.38092 37.5612 6.38092ZM54.1899 1.04692V32.2949H47.2599V1.04692H54.1899ZM67.6831 36.7049V32.2949H60.7111V36.7049H54.7891V25.7009H55.8391C56.0911 25.2529 56.2871 23.8529 56.4271 21.5009C56.5391 19.1489 56.6511 12.3309 56.7631 1.04692H72.0091V25.7009H73.6051V36.7049H67.6831ZM62.6011 21.1649C62.4611 23.1529 62.2511 24.7349 61.9711 25.9109H65.3311V7.51492H62.8951C62.7271 16.1389 62.6291 20.6889 62.6011 21.1649ZM74.4923 32.2949V1.04692H90.4943V32.2949H83.5643V7.51492H81.4223V32.2949H74.4923ZM108.726 9.44692V24.2729C108.726 26.9609 108.04 29.0469 106.668 30.5309C105.296 32.0149 103.406 32.7569 100.998 32.7569H99.6539C97.1339 32.7569 95.2019 32.0289 93.8579 30.5729C92.5139 29.0889 91.8419 26.9889 91.8419 24.2729V9.44692C91.8419 3.56692 94.4319 0.626922 99.6119 0.626922H100.956C106.136 0.626922 108.726 3.56692 108.726 9.44692ZM101.544 24.7349V8.73292C101.544 7.55692 101.124 6.96892 100.284 6.96892C99.4439 6.96892 99.0239 7.55692 99.0239 8.73292V24.7349C99.0239 25.7709 99.4579 26.2889 100.326 26.2889C101.138 26.2889 101.544 25.7709 101.544 24.7349ZM109.932 32.2949V1.04692H120.432C122.28 1.04692 123.652 1.50892 124.548 2.43292C125.472 3.35692 125.934 4.85492 125.934 6.92692V10.3709C125.934 11.6869 125.612 12.7509 124.968 13.5629C124.352 14.3749 123.708 14.8929 123.036 15.1169C125.36 15.8449 126.522 17.6229 126.522 20.4509V25.0709C126.522 29.8869 124.632 32.2949 120.852 32.2949H109.932ZM117.996 18.5189H116.862V26.7509H118.122C118.542 26.7509 118.836 26.6389 119.004 26.4149C119.2 26.1629 119.298 25.7149 119.298 25.0709V20.1149C119.298 19.5269 119.2 19.1209 119.004 18.8969C118.836 18.6449 118.5 18.5189 117.996 18.5189ZM117.87 6.38092H116.862V13.1009H117.828C118.668 13.1009 119.088 12.5829 119.088 11.5469V7.85092C119.088 7.34692 119.004 6.98292 118.836 6.75892C118.668 6.50692 118.346 6.38092 117.87 6.38092ZM134.499 1.04692V32.2949H127.569V1.04692H134.499ZM147.992 36.7049V32.2949H141.02V36.7049H135.098V25.7009H136.148C136.4 25.2529 136.596 23.8529 136.736 21.5009C136.848 19.1489 136.96 12.3309 137.072 1.04692H152.318V25.7009H153.914V36.7049H147.992ZM142.91 21.1649C142.77 23.1529 142.56 24.7349 142.28 25.9109H145.64V7.51492H143.204C143.036 16.1389 142.938 20.6889 142.91 21.1649ZM161.815 1.04692V32.2949H154.885V1.04692H161.815ZM177.004 32.2949V19.6949H174.61V32.2949H167.68V1.04692H174.61V12.3869H177.004V1.04692H183.934V32.2949H177.004ZM194.725 32.2949L194.221 27.7169H191.029L190.567 32.2949H184.561L188.551 1.04692H197.077L201.445 32.2949H194.725ZM192.625 12.0509L191.659 21.5429H193.591L192.625 12.0509Z" fill="url(#paint0_linear_332_327)"/>
<path d="M14.1308 74.2949V61.6949H11.7368V74.2949H4.80677V43.0469H11.7368V54.3869H14.1308V43.0469H21.0608V74.2949H14.1308ZM31.8515 74.2949L31.3475 69.7169H28.1555L27.6935 74.2949H21.6875L25.6775 43.0469H34.2035L38.5715 74.2949H31.8515ZM29.7515 54.0509L28.7855 63.5429H30.7175L29.7515 54.0509ZM45.3998 43.0469V58.6709L48.7598 43.0469H55.2278V74.2949H48.7598V58.7549L45.3998 74.2949H38.9318V43.0469H45.3998ZM47.2898 42.2069H47.0798C45.5118 42.2069 44.2658 41.7729 43.3418 40.9049C42.4458 40.0369 41.9978 38.8889 41.9978 37.4609V37.1249H46.1558V37.3769C46.1558 38.1329 46.4918 38.5109 47.1638 38.5109H47.2058C47.8778 38.5109 48.2138 38.1329 48.2138 37.3769V37.1249H52.3298V37.4609C52.3298 38.8609 51.8538 40.0089 50.9018 40.9049C49.9778 41.7729 48.7738 42.2069 47.2898 42.2069ZM56.5685 74.2949V43.0469H72.5705V74.2949H65.6405V49.5149H63.4985V74.2949H56.5685ZM90.8021 51.4469V66.2729C90.8021 68.9609 90.1161 71.0469 88.7441 72.5309C87.3721 74.0149 85.4821 74.7569 83.0741 74.7569H81.7301C79.2101 74.7569 77.2781 74.0289 75.9341 72.5729C74.5901 71.0889 73.9181 68.9889 73.9181 66.2729V51.4469C73.9181 45.5669 76.5081 42.6269 81.6881 42.6269H83.0321C88.2121 42.6269 90.8021 45.5669 90.8021 51.4469ZM83.6201 66.7349V50.7329C83.6201 49.5569 83.2001 48.9689 82.3601 48.9689C81.5201 48.9689 81.1001 49.5569 81.1001 50.7329V66.7349C81.1001 67.7709 81.5341 68.2889 82.4021 68.2889C83.2141 68.2889 83.6201 67.7709 83.6201 66.7349ZM91.924 74.2949V43.0469H98.854V67.7009H100.66V43.0469H107.59V67.7009H109.396V43.0469H116.368V74.2949H91.924ZM124.191 43.0469V58.6709L127.551 43.0469H134.019V74.2949H127.551V58.7549L124.191 74.2949H117.723V43.0469H124.191ZM145.65 62.2409H142.332V74.2949H135.444V43.0469H145.44C147.484 43.0469 148.968 43.5649 149.892 44.6009C150.844 45.6369 151.32 47.2189 151.32 49.3469V55.8149C151.32 57.8589 150.816 59.4409 149.808 60.5609C148.828 61.6809 147.442 62.2409 145.65 62.2409ZM142.332 48.5069V56.4869H143.172C143.648 56.4869 143.97 56.3749 144.138 56.1509C144.306 55.8989 144.39 55.5069 144.39 54.9749V50.0609C144.39 49.5289 144.306 49.1369 144.138 48.8849C143.97 48.6329 143.648 48.5069 143.172 48.5069H142.332ZM152.424 43.0469H165.402V49.5149H159.27V54.8489H164.184V61.4849H159.27V67.7009H165.654V74.2949H152.424V43.0469ZM175.855 74.2949V61.6949H173.461V74.2949H166.531V43.0469H173.461V54.3869H175.855V43.0469H182.785V74.2949H175.855ZM191.182 43.0469V74.2949H184.252V43.0469H191.182ZM192.453 74.2949V43.0469H199.383V67.7009H201.189V43.0469H208.119V67.7009H209.925V43.0469H216.897V74.2949H192.453ZM225.266 43.0469V74.2949H218.336V43.0469H225.266ZM46.9203 91.7249V94.9589H40.2003V90.8849C40.2003 89.1209 40.7743 87.6509 41.9223 86.4749C43.0983 85.2709 44.8763 84.6689 47.2563 84.6689H48.4743C53.2623 84.6689 55.6563 86.7409 55.6563 90.8849V93.9929C55.6563 95.9809 54.9423 97.5069 53.5143 98.5709C54.2703 98.8229 54.8723 99.2989 55.3203 99.9989C55.7683 100.699 55.9923 101.553 55.9923 102.561V109.743C55.9923 111.983 55.3483 113.719 54.0603 114.951C52.7723 116.155 50.9663 116.757 48.6423 116.757H47.5083C44.9043 116.757 43.0143 116.169 41.8383 114.993C40.6903 113.789 40.1163 112.319 40.1163 110.583V104.703H46.9623V109.323C46.9623 110.079 47.2843 110.457 47.9283 110.457C48.5723 110.457 48.8943 110.079 48.8943 109.323V103.989C48.8943 103.569 48.8383 103.289 48.7263 103.149C48.6143 103.009 48.3623 102.939 47.9703 102.939H44.6523V96.5969H47.7183C48.3903 96.5969 48.7263 96.2329 48.7263 95.5049V91.7249C48.7263 91.3049 48.6563 91.0109 48.5163 90.8429C48.3763 90.6749 48.1383 90.5909 47.8023 90.5909C47.2143 90.5909 46.9203 90.9689 46.9203 91.7249ZM66.3046 116.295L65.8006 111.717H62.6086L62.1466 116.295H56.1406L60.1306 85.0469H68.6566L73.0246 116.295H66.3046ZM64.2046 96.0509L63.2386 105.543H65.1706L64.2046 96.0509ZM73.3849 116.295V85.0469H89.3869V116.295H82.4569V91.5149H80.3149V116.295H73.3849ZM97.2025 85.0469V100.671L100.562 85.0469H107.031V116.295H100.562V100.755L97.2025 116.295H90.7345V85.0469H97.2025ZM108.077 85.0469H122.777V91.5149H118.871V116.295H111.983V91.5149H108.077V85.0469ZM131.109 116.295L130.605 111.717H127.413L126.951 116.295H120.945L124.935 85.0469H133.461L137.829 116.295H131.109ZM129.009 96.0509L128.043 105.543H129.975L129.009 96.0509ZM147.514 116.295V103.695H145.12V116.295H138.19V85.0469H145.12V96.3869H147.514V85.0469H154.444V116.295H147.514ZM165.15 116.295V103.695H162.756V116.295H155.826V85.0469H162.756V96.3869H165.15V85.0469H172.08V116.295H165.15ZM182.745 104.997H182.283L179.805 116.295H172.665L175.899 103.023C174.471 102.043 173.757 100.349 173.757 97.9409V91.3469C173.757 89.2189 174.219 87.6369 175.143 86.6009C176.095 85.5649 177.593 85.0469 179.637 85.0469H189.633V116.295H182.745V104.997ZM182.745 99.2429V90.5069H181.905C181.429 90.5069 181.107 90.6329 180.939 90.8849C180.771 91.1369 180.687 91.5289 180.687 92.0609V97.7309C180.687 98.2629 180.771 98.6549 180.939 98.9069C181.107 99.1309 181.429 99.2429 181.905 99.2429H182.745Z" fill="url(#paint1_linear_332_327)"/>
</g>
<defs>
<filter id="filter0_d_332_327" x="0.806641" y="0.626953" width="228.459" height="124.13" filterUnits="userSpaceOnUse" color-interpolation-filters="sRGB">
<feFlood flood-opacity="0" result="BackgroundImageFix"/>
<feColorMatrix in="SourceAlpha" type="matrix" values="0 0 0 0 0 0 0 0 0 0 0 0 0 0 0 0 0 0 127 0" result="hardAlpha"/>
<feOffset dy="4"/>
<feGaussianBlur stdDeviation="2"/>
<feComposite in2="hardAlpha" operator="out"/>
<feColorMatrix type="matrix" values="0 0 0 0 0 0 0 0 0 0 0 0 0 0 0 0 0 0 0.25 0"/>
<feBlend mode="normal" in2="BackgroundImageFix" result="effect1_dropShadow_332_327"/>
<feBlend mode="normal" in="SourceGraphic" in2="effect1_dropShadow_332_327" result="shape"/>
</filter>
<linearGradient id="paint0_linear_332_327" x1="294.283" y1="61.6133" x2="-64.9027" y2="61.6132" gradientUnits="userSpaceOnUse">
<stop stop-color="white" stop-opacity="0"/>
<stop offset="0.370128" stop-color="white"/>
<stop offset="0.605261" stop-color="white"/>
<stop offset="1" stop-color="white" stop-opacity="0"/>
</linearGradient>
<linearGradient id="paint1_linear_332_327" x1="294.283" y1="61.6133" x2="-64.9027" y2="61.6132" gradientUnits="userSpaceOnUse">
<stop stop-color="#F5CC7D"/>
<stop offset="0.370128" stop-color="#F5CC7D"/>
<stop offset="0.605261" stop-color="#F5CC7D"/>
<stop offset="1" stop-color="#FFE38C"/>
</linearGradient>
</defs>
</svg>
