<svg width="895" height="177" viewBox="0 0 895 177" fill="none" xmlns="http://www.w3.org/2000/svg">
<path d="M244.037 75.7754V1.37539H269.037C273.437 1.37539 276.703 2.47539 278.837 4.67539C281.037 6.87539 282.137 10.4421 282.137 15.3754V23.5754C282.137 26.7087 281.37 29.2421 279.837 31.1754C278.37 33.1087 276.837 34.3421 275.237 34.8754C280.77 36.6087 283.537 40.8421 283.537 47.5754V58.5754C283.537 70.0421 279.037 75.7754 270.037 75.7754H244.037ZM263.237 42.9754H260.537V62.5754H263.537C264.537 62.5754 265.237 62.3087 265.637 61.7754C266.103 61.1754 266.337 60.1087 266.337 58.5754V46.7754C266.337 45.3754 266.103 44.4087 265.637 43.8754C265.237 43.2754 264.437 42.9754 263.237 42.9754ZM262.937 14.0754H260.537V30.0754H262.837C264.837 30.0754 265.837 28.8421 265.837 26.3754V17.5754C265.837 16.3754 265.637 15.5087 265.237 14.9754C264.837 14.3754 264.07 14.0754 262.937 14.0754ZM302.529 1.37539V75.7754H286.029V1.37539H302.529ZM334.655 86.2754V75.7754H318.055V86.2754H303.955V60.0754H306.455C307.055 59.0087 307.522 55.6754 307.855 50.0754C308.122 44.4754 308.389 28.2421 308.655 1.37539H344.955V60.0754H348.755V86.2754H334.655ZM322.555 49.2754C322.222 54.0087 321.722 57.7754 321.055 60.5754H329.055V16.7754H323.255C322.855 37.3087 322.622 48.1421 322.555 49.2754ZM350.868 75.7754V1.37539H388.968V75.7754H372.468V16.7754H367.368V75.7754H350.868ZM432.376 21.3754V56.6754C432.376 63.0754 430.743 68.0421 427.476 71.5754C424.21 75.1087 419.71 76.8754 413.976 76.8754H410.776C404.776 76.8754 400.176 75.1421 396.976 71.6754C393.776 68.1421 392.176 63.1421 392.176 56.6754V21.3754C392.176 7.37539 398.343 0.37539 410.676 0.37539H413.876C426.21 0.37539 432.376 7.37539 432.376 21.3754ZM415.276 57.7754V19.6754C415.276 16.8754 414.276 15.4754 412.276 15.4754C410.276 15.4754 409.276 16.8754 409.276 19.6754V57.7754C409.276 60.2421 410.31 61.4754 412.376 61.4754C414.31 61.4754 415.276 60.2421 415.276 57.7754ZM435.248 75.7754V1.37539H460.248C464.648 1.37539 467.914 2.47539 470.048 4.67539C472.248 6.87539 473.348 10.4421 473.348 15.3754V23.5754C473.348 26.7087 472.581 29.2421 471.048 31.1754C469.581 33.1087 468.048 34.3421 466.448 34.8754C471.981 36.6087 474.748 40.8421 474.748 47.5754V58.5754C474.748 70.0421 470.248 75.7754 461.248 75.7754H435.248ZM454.448 42.9754H451.748V62.5754H454.748C455.748 62.5754 456.448 62.3087 456.848 61.7754C457.314 61.1754 457.548 60.1087 457.548 58.5754V46.7754C457.548 45.3754 457.314 44.4087 456.848 43.8754C456.448 43.2754 455.648 42.9754 454.448 42.9754ZM454.148 14.0754H451.748V30.0754H454.048C456.048 30.0754 457.048 28.8421 457.048 26.3754V17.5754C457.048 16.3754 456.848 15.5087 456.448 14.9754C456.048 14.3754 455.281 14.0754 454.148 14.0754ZM493.74 1.37539V75.7754H477.24V1.37539H493.74ZM525.866 86.2754V75.7754H509.266V86.2754H495.166V60.0754H497.666C498.266 59.0087 498.733 55.6754 499.066 50.0754C499.333 44.4754 499.6 28.2421 499.866 1.37539H536.166V60.0754H539.966V86.2754H525.866ZM513.766 49.2754C513.433 54.0087 512.933 57.7754 512.266 60.5754H520.266V16.7754H514.466C514.066 37.3087 513.833 48.1421 513.766 49.2754ZM558.779 1.37539V75.7754H542.279V1.37539H558.779ZM594.943 75.7754V45.7754H589.243V75.7754H572.743V1.37539H589.243V28.3754H594.943V1.37539H611.443V75.7754H594.943ZM637.135 75.7754L635.935 64.8754H628.335L627.235 75.7754H612.935L622.435 1.37539H642.735L653.135 75.7754H637.135ZM632.135 27.5754L629.835 50.1754H634.435L632.135 27.5754Z" fill="url(#paint0_linear_301_311)"/>
<path d="M22.2866 175.775V145.775H16.5866V175.775H0.0865723V101.375H16.5866V128.375H22.2866V101.375H38.7866V175.775H22.2866ZM64.4788 175.775L63.2788 164.875H55.6788L54.5788 175.775H40.2788L49.7788 101.375H70.0788L80.4788 175.775H64.4788ZM59.4788 127.575L57.1788 150.175H61.7788L59.4788 127.575ZM96.7366 101.375V138.575L104.737 101.375H120.137V175.775H104.737V138.775L96.7366 175.775H81.3366V101.375H96.7366ZM101.237 99.3754H100.737C97.0032 99.3754 94.0366 98.3421 91.8366 96.2754C89.7032 94.2087 88.6366 91.4754 88.6366 88.0754V87.2754H98.5366V87.8754C98.5366 89.6754 99.3366 90.5754 100.937 90.5754H101.037C102.637 90.5754 103.437 89.6754 103.437 87.8754V87.2754H113.237V88.0754C113.237 91.4087 112.103 94.1421 109.837 96.2754C107.637 98.3421 104.77 99.3754 101.237 99.3754ZM123.329 175.775V101.375H161.429V175.775H144.929V116.775H139.829V175.775H123.329ZM204.837 121.375V156.675C204.837 163.075 203.204 168.042 199.937 171.575C196.671 175.109 192.171 176.875 186.437 176.875H183.237C177.237 176.875 172.637 175.142 169.437 171.675C166.237 168.142 164.637 163.142 164.637 156.675V121.375C164.637 107.375 170.804 100.375 183.137 100.375H186.337C198.671 100.375 204.837 107.375 204.837 121.375ZM187.737 157.775V119.675C187.737 116.875 186.737 115.475 184.737 115.475C182.737 115.475 181.737 116.875 181.737 119.675V157.775C181.737 160.242 182.771 161.475 184.837 161.475C186.771 161.475 187.737 160.242 187.737 157.775ZM207.508 175.775V101.375H224.008V160.075H228.308V101.375H244.808V160.075H249.108V101.375H265.708V175.775H207.508ZM284.334 101.375V138.575L292.334 101.375H307.734V175.775H292.334V138.775L284.334 175.775H268.934V101.375H284.334ZM335.426 147.075H327.526V175.775H311.126V101.375H334.926C339.793 101.375 343.326 102.609 345.526 105.075C347.793 107.542 348.926 111.309 348.926 116.375V131.775C348.926 136.642 347.726 140.409 345.326 143.075C342.993 145.742 339.693 147.075 335.426 147.075ZM327.526 114.375V133.375H329.526C330.66 133.375 331.426 133.109 331.826 132.575C332.226 131.975 332.426 131.042 332.426 129.775V118.075C332.426 116.809 332.226 115.875 331.826 115.275C331.426 114.675 330.66 114.375 329.526 114.375H327.526ZM351.556 101.375H382.456V116.775H367.856V129.475H379.556V145.275H367.856V160.075H383.056V175.775H351.556V101.375ZM407.345 175.775V145.775H401.645V175.775H385.145V101.375H401.645V128.375H407.345V101.375H423.845V175.775H407.345ZM443.837 101.375V175.775H427.337V101.375H443.837ZM446.864 175.775V101.375H463.364V160.075H467.664V101.375H484.164V160.075H488.464V101.375H505.064V175.775H446.864ZM524.99 101.375V175.775H508.49V101.375H524.99ZM554.654 117.275V124.975H538.654V115.275C538.654 111.075 540.02 107.575 542.754 104.775C545.554 101.909 549.787 100.475 555.454 100.475H558.354C569.754 100.475 575.454 105.409 575.454 115.275V122.675C575.454 127.409 573.754 131.042 570.354 133.575C572.154 134.175 573.587 135.309 574.654 136.975C575.72 138.642 576.254 140.675 576.254 143.075V160.175C576.254 165.509 574.72 169.642 571.654 172.575C568.587 175.442 564.287 176.875 558.754 176.875H556.054C549.854 176.875 545.354 175.475 542.554 172.675C539.82 169.809 538.454 166.309 538.454 162.175V148.175H554.754V159.175C554.754 160.975 555.52 161.875 557.054 161.875C558.587 161.875 559.354 160.975 559.354 159.175V146.475C559.354 145.475 559.22 144.809 558.954 144.475C558.687 144.142 558.087 143.975 557.154 143.975H549.254V128.875H556.554C558.154 128.875 558.954 128.009 558.954 126.275V117.275C558.954 116.275 558.787 115.575 558.454 115.175C558.12 114.775 557.554 114.575 556.754 114.575C555.354 114.575 554.654 115.475 554.654 117.275ZM600.807 175.775L599.607 164.875H592.007L590.907 175.775H576.607L586.107 101.375H606.407L616.807 175.775H600.807ZM595.807 127.575L593.507 150.175H598.107L595.807 127.575ZM617.665 175.775V101.375H655.765V175.775H639.265V116.775H634.165V175.775H617.665ZM674.373 101.375V138.575L682.373 101.375H697.773V175.775H682.373V138.775L674.373 175.775H658.973V101.375H674.373ZM700.265 101.375H735.265V116.775H725.965V175.775H709.565V116.775H700.265V101.375ZM755.104 175.775L753.904 164.875H746.304L745.204 175.775H730.904L740.404 101.375H760.704L771.104 175.775H755.104ZM750.104 127.575L747.804 150.175H752.404L750.104 127.575ZM794.162 175.775V145.775H788.462V175.775H771.962V101.375H788.462V128.375H794.162V101.375H810.662V175.775H794.162ZM836.154 175.775V145.775H830.454V175.775H813.954V101.375H830.454V128.375H836.154V101.375H852.654V175.775H836.154ZM878.046 148.875H876.946L871.046 175.775H854.046L861.746 144.175C858.346 141.842 856.646 137.809 856.646 132.075V116.375C856.646 111.309 857.746 107.542 859.946 105.075C862.213 102.609 865.779 101.375 870.646 101.375H894.446V175.775H878.046V148.875ZM878.046 135.175V114.375H876.046C874.913 114.375 874.146 114.675 873.746 115.275C873.346 115.875 873.146 116.809 873.146 118.075V131.575C873.146 132.842 873.346 133.775 873.746 134.375C874.146 134.909 874.913 135.175 876.046 135.175H878.046Z" fill="url(#paint1_linear_301_311)"/>
<defs>
<linearGradient id="paint0_linear_301_311" x1="1148.41" y1="102.475" x2="-256.205" y2="102.475" gradientUnits="userSpaceOnUse">
<stop stop-color="white" stop-opacity="0"/>
<stop offset="0.370128" stop-color="white"/>
<stop offset="0.605261" stop-color="white"/>
<stop offset="1" stop-color="white" stop-opacity="0"/>
</linearGradient>
<linearGradient id="paint1_linear_301_311" x1="1148.41" y1="102.475" x2="-256.205" y2="102.475" gradientUnits="userSpaceOnUse">
<stop stop-color="#F5CC7D"/>
<stop offset="0.370128" stop-color="#F5CC7D"/>
<stop offset="0.605261" stop-color="#F5CC7D"/>
<stop offset="1" stop-color="#FFE38C"/>
</linearGradient>
</defs>
</svg>
