<svg width="283" height="334" viewBox="0 0 283 334" fill="none" xmlns="http://www.w3.org/2000/svg">
<g filter="url(#filter0_dddddd_484_2)">
<path d="M87.4033 27.6549C87.4033 26.5577 88.2928 25.6682 89.39 25.6682H194.09C195.188 25.6682 196.077 26.5577 196.077 27.6549V122.23C196.077 123.223 195.344 124.063 194.361 124.198L89.6603 138.577C88.4668 138.741 87.4033 137.813 87.4033 136.609V27.6549Z" fill="#F5F5F5"/>
</g>
<g filter="url(#filter1_d_484_2)">
<path d="M73.1045 -9.29023C73.1045 -10.3874 73.9939 -11.2769 75.0911 -11.2769H208.39C209.487 -11.2769 210.377 -10.3874 210.377 -9.29022V112.189C210.377 113.181 209.645 114.021 208.662 114.157L75.3636 132.615C74.1695 132.781 73.1045 131.853 73.1045 130.647V-9.29023Z" fill="#F9F9F9"/>
</g>
<path d="M61.496 94.2196C61.496 94.933 61.3426 95.5796 61.036 96.1596C60.7226 96.733 60.2926 97.1863 59.746 97.5196C59.1926 97.8463 58.5693 98.0096 57.876 98.0096C57.1826 98.0096 56.5626 97.8463 56.016 97.5196C55.4626 97.1863 55.0326 96.733 54.726 96.1596C54.4126 95.5796 54.256 94.9296 54.256 94.2096C54.256 93.603 54.3626 93.0563 54.576 92.5696C54.7893 92.0763 55.096 91.663 55.496 91.3296L56.456 92.3696C55.9093 92.843 55.636 93.4296 55.636 94.1296C55.636 94.563 55.7326 94.9496 55.926 95.2896C56.1126 95.6296 56.376 95.8963 56.716 96.0896C57.056 96.2763 57.4426 96.3696 57.876 96.3696C58.3093 96.3696 58.696 96.2763 59.036 96.0896C59.376 95.8963 59.6426 95.6296 59.836 95.2896C60.0226 94.9496 60.116 94.563 60.116 94.1296C60.116 93.4296 59.8393 92.843 59.286 92.3696L60.246 91.3296C60.6526 91.663 60.9626 92.0763 61.176 92.5696C61.3893 93.063 61.496 93.613 61.496 94.2196ZM55.696 81.4921L55.696 83.7321L61.376 83.7321L61.376 85.3321L55.696 85.3321L55.696 87.5621L54.376 87.5621L54.376 81.4921L55.696 81.4921ZM59.876 72.5865L59.876 75.8365L61.376 76.4565L61.376 78.1165L54.376 74.9965L54.376 73.3965L61.376 70.2665L61.376 71.9665L59.876 72.5865ZM58.646 73.0965L55.966 74.2065L58.646 75.3165L58.646 73.0965ZM54.376 62.8082C54.376 62.1882 54.4793 61.6515 54.686 61.1982C54.8926 60.7382 55.186 60.3849 55.566 60.1382C55.946 59.8915 56.396 59.7682 56.916 59.7682C57.4293 59.7682 57.8793 59.8915 58.266 60.1382C58.646 60.3849 58.9393 60.7382 59.146 61.1982C59.346 61.6515 59.446 62.1882 59.446 62.8082L59.446 64.2182L61.376 64.2182L61.376 65.8382L54.376 65.8382L54.376 62.8082ZM58.126 62.8982C58.126 62.4115 58.0226 62.0415 57.816 61.7882C57.6026 61.5349 57.3026 61.4082 56.916 61.4082C56.5226 61.4082 56.2226 61.5349 56.016 61.7882C55.8026 62.0415 55.696 62.4115 55.696 62.8982L55.696 64.2182L58.126 64.2182L58.126 62.8982ZM55.696 50.0449L55.696 52.2849L61.376 52.2849L61.376 53.8849L55.696 53.8849L55.696 56.1149L54.376 56.1149L54.376 50.0449L55.696 50.0449Z" fill="#474747"/>
<path d="M127.702 33.4113C126.765 33.4113 126.297 34.0357 126.297 35.2845V42.0413H116.262V34.2141C116.262 31.4044 117.109 29.0629 118.804 27.1897C120.499 25.3166 123.13 24.38 126.698 24.38H128.973C132.719 24.38 135.574 25.272 137.536 27.0559C139.498 28.8399 140.479 31.4044 140.479 34.7493V37.3584C140.479 40.1681 140.234 42.3981 139.744 44.0483C139.253 45.6984 138.049 47.6831 136.131 50.0023C134.748 51.7862 133.143 53.7263 131.314 55.8225C129.352 58.1862 127.902 60.0594 126.966 61.442C126.029 62.78 125.494 63.6274 125.36 63.9842C125.271 64.2963 125.227 64.6977 125.227 65.1883H130.779V57.9632H140.814V74.7549H115.459V68.1988C115.459 65.3444 115.816 62.9138 116.53 60.9068C117.243 58.8552 119.094 55.6441 122.082 51.2734C124 48.2406 125.405 46.0998 126.297 44.8511C127.456 42.9333 128.215 41.5284 128.571 40.6364C128.973 39.7444 129.174 38.8524 129.174 37.9605V35.2845C129.174 34.0357 128.683 33.4113 127.702 33.4113ZM152.809 54.3507V43.7138C152.006 46.2559 150.824 49.8016 149.263 54.3507H152.809ZM142.372 64.5862V55.7556C144.558 50.0469 148.26 39.6775 153.478 24.6476H163.446V54.3507H168.129V64.5862H163.446V74.7549H152.809V64.5862H142.372Z" fill="url(#paint0_linear_484_2)"/>
<path d="M107.861 101V86.3432H106.641C106.641 92.2569 106.569 96.0984 106.426 97.8678C106.362 98.9676 106.091 99.7646 105.613 100.259C105.151 100.753 104.354 101 103.222 101H102.433V97.7721H102.624C102.943 97.7721 103.158 97.6845 103.27 97.5091C103.381 97.3179 103.445 97.007 103.461 96.5766C103.573 93.0061 103.629 88.5509 103.629 83.211H111.041V101H107.861ZM117.109 101V91.5555L115.052 101H111.944V83.211H115.052V92.7271L117.109 83.211H120.217V101H117.109ZM126.022 97.0788V93.1575H129.178V97.1744C129.178 98.3699 128.883 99.3582 128.294 100.139C127.72 100.904 126.787 101.287 125.496 101.287H124.851C123.448 101.287 122.468 100.904 121.91 100.139C121.368 99.3741 121.097 98.354 121.097 97.0788V87.0366C121.097 85.8411 121.392 84.8687 121.981 84.1195C122.587 83.3704 123.543 82.9958 124.851 82.9958H125.496C126.229 82.9958 126.843 83.0994 127.337 83.3066C127.847 83.5138 128.23 83.8167 128.485 84.2152C128.74 84.5977 128.915 85.0042 129.011 85.4346C129.122 85.865 129.178 86.3591 129.178 86.917V89.9058H126.022V87.0366C126.022 86.3511 125.751 86.0084 125.209 86.0084C124.683 86.0084 124.42 86.3511 124.42 87.0366V97.0788C124.42 97.7961 124.691 98.1547 125.233 98.1547C125.759 98.1547 126.022 97.7961 126.022 97.0788ZM129.614 83.211H137.337V86.3432H135.065V101H131.885V86.3432H129.614V83.211ZM146.09 87.5148V96.9353C146.09 98.2583 145.755 99.3104 145.085 100.091C144.416 100.872 143.491 101.263 142.312 101.263H141.594C140.335 101.263 139.379 100.896 138.725 100.163C138.072 99.414 137.745 98.338 137.745 96.9353V87.5387C137.745 84.5101 139.02 82.9958 141.571 82.9958H142.288C144.822 82.9958 146.09 84.5021 146.09 87.5148ZM142.766 97.0309V87.2757C142.766 86.4946 142.487 86.1041 141.929 86.1041C141.355 86.1041 141.068 86.4946 141.068 87.2757V97.0309C141.068 97.7323 141.363 98.083 141.953 98.083C142.495 98.083 142.766 97.7323 142.766 97.0309ZM146.875 101V83.211H154.67V101H151.49V86.3432H150.055V101H146.875ZM160.438 101L160.104 98.0113H158.191L157.904 101H155.082L157.33 83.211H161.108L163.523 101H160.438ZM159.123 88.8537L158.502 94.9508H159.793L159.123 88.8537ZM169.757 103.511V101H166.433V103.511H163.492V97.7961H164.09C164.154 97.4932 164.186 97.3258 164.186 97.2939C164.265 96.9273 164.313 96.3535 164.329 95.5724C164.409 93.1495 164.449 89.0291 164.449 83.211H171.861V97.7961H172.698V103.511H169.757ZM167.246 95.3572C167.135 96.5209 167.079 97.1186 167.079 97.1505L166.983 97.7961H168.752V86.3432H167.366C167.366 90.631 167.326 93.6357 167.246 95.3572ZM178.231 101L177.896 98.0113H175.983L175.696 101H172.875L175.122 83.211H178.9L181.315 101H178.231ZM176.916 88.8537L176.294 94.9508H177.585L176.916 88.8537Z" fill="url(#paint1_linear_484_2)"/>
<defs>
<filter id="filter0_dddddd_484_2" x="0.763771" y="25.6682" width="281.953" height="307.866" filterUnits="userSpaceOnUse" color-interpolation-filters="sRGB">
<feFlood flood-opacity="0" result="BackgroundImageFix"/>
<feColorMatrix in="SourceAlpha" type="matrix" values="0 0 0 0 0 0 0 0 0 0 0 0 0 0 0 0 0 0 127 0" result="hardAlpha"/>
<feOffset dy="2.99692"/>
<feGaussianBlur stdDeviation="1.19877"/>
<feColorMatrix type="matrix" values="0 0 0 0 0 0 0 0 0 0 0 0 0 0 0 0 0 0 0.0140573 0"/>
<feBlend mode="normal" in2="BackgroundImageFix" result="effect1_dropShadow_484_2"/>
<feColorMatrix in="SourceAlpha" type="matrix" values="0 0 0 0 0 0 0 0 0 0 0 0 0 0 0 0 0 0 127 0" result="hardAlpha"/>
<feOffset dy="7.20202"/>
<feGaussianBlur stdDeviation="2.88081"/>
<feColorMatrix type="matrix" values="0 0 0 0 0 0 0 0 0 0 0 0 0 0 0 0 0 0 0.0201946 0"/>
<feBlend mode="normal" in2="effect1_dropShadow_484_2" result="effect2_dropShadow_484_2"/>
<feColorMatrix in="SourceAlpha" type="matrix" values="0 0 0 0 0 0 0 0 0 0 0 0 0 0 0 0 0 0 127 0" result="hardAlpha"/>
<feOffset dy="13.5608"/>
<feGaussianBlur stdDeviation="5.42431"/>
<feColorMatrix type="matrix" values="0 0 0 0 0 0 0 0 0 0 0 0 0 0 0 0 0 0 0.025 0"/>
<feBlend mode="normal" in2="effect2_dropShadow_484_2" result="effect3_dropShadow_484_2"/>
<feColorMatrix in="SourceAlpha" type="matrix" values="0 0 0 0 0 0 0 0 0 0 0 0 0 0 0 0 0 0 127 0" result="hardAlpha"/>
<feOffset dy="24.1901"/>
<feGaussianBlur stdDeviation="9.67604"/>
<feColorMatrix type="matrix" values="0 0 0 0 0 0 0 0 0 0 0 0 0 0 0 0 0 0 0.0298054 0"/>
<feBlend mode="normal" in2="effect3_dropShadow_484_2" result="effect4_dropShadow_484_2"/>
<feColorMatrix in="SourceAlpha" type="matrix" values="0 0 0 0 0 0 0 0 0 0 0 0 0 0 0 0 0 0 127 0" result="hardAlpha"/>
<feOffset dy="45.2449"/>
<feGaussianBlur stdDeviation="18.098"/>
<feColorMatrix type="matrix" values="0 0 0 0 0 0 0 0 0 0 0 0 0 0 0 0 0 0 0.0359427 0"/>
<feBlend mode="normal" in2="effect4_dropShadow_484_2" result="effect5_dropShadow_484_2"/>
<feColorMatrix in="SourceAlpha" type="matrix" values="0 0 0 0 0 0 0 0 0 0 0 0 0 0 0 0 0 0 127 0" result="hardAlpha"/>
<feOffset dy="108.299"/>
<feGaussianBlur stdDeviation="43.3198"/>
<feColorMatrix type="matrix" values="0 0 0 0 0 0 0 0 0 0 0 0 0 0 0 0 0 0 0.05 0"/>
<feBlend mode="normal" in2="effect5_dropShadow_484_2" result="effect6_dropShadow_484_2"/>
<feBlend mode="normal" in="SourceGraphic" in2="effect6_dropShadow_484_2" result="shape"/>
</filter>
<filter id="filter1_d_484_2" x="24.3697" y="-55.6796" width="234.742" height="241.381" filterUnits="userSpaceOnUse" color-interpolation-filters="sRGB">
<feFlood flood-opacity="0" result="BackgroundImageFix"/>
<feColorMatrix in="SourceAlpha" type="matrix" values="0 0 0 0 0 0 0 0 0 0 0 0 0 0 0 0 0 0 127 0" result="hardAlpha"/>
<feOffset dy="4.33198"/>
<feGaussianBlur stdDeviation="24.3674"/>
<feComposite in2="hardAlpha" operator="out"/>
<feColorMatrix type="matrix" values="0 0 0 0 0 0 0 0 0 0 0 0 0 0 0 0 0 0 0.05 0"/>
<feBlend mode="normal" in2="BackgroundImageFix" result="effect1_dropShadow_484_2"/>
<feBlend mode="normal" in="SourceGraphic" in2="effect1_dropShadow_484_2" result="shape"/>
</filter>
<linearGradient id="paint0_linear_484_2" x1="209.392" y1="52.0104" x2="73.8523" y2="52.0104" gradientUnits="userSpaceOnUse">
<stop stop-color="#D80023"/>
<stop offset="0.370128" stop-color="#FC2144"/>
<stop offset="0.605261" stop-color="#D80023"/>
<stop offset="1" stop-color="#FF0000"/>
</linearGradient>
<linearGradient id="paint1_linear_484_2" x1="201.933" y1="95.2341" x2="81.3372" y2="95.2341" gradientUnits="userSpaceOnUse">
<stop stop-color="#D80023"/>
<stop offset="0.370128" stop-color="#FC2144"/>
<stop offset="0.605261" stop-color="#D80023"/>
<stop offset="1" stop-color="#FF0000"/>
</linearGradient>
</defs>
</svg>
