<svg width="283" height="334" viewBox="0 0 283 334" fill="none" xmlns="http://www.w3.org/2000/svg">
<g filter="url(#filter0_d_301_495)">
<g filter="url(#filter1_dddddd_301_495)">
<path d="M87.2837 27.8895C87.2837 26.7935 88.1722 25.905 89.2682 25.905H193.854C194.95 25.905 195.839 26.7935 195.839 27.8895V122.362C195.839 123.353 195.107 124.193 194.124 124.328L89.5382 138.691C88.346 138.854 87.2837 137.928 87.2837 136.725V27.8895Z" fill="url(#paint0_linear_301_495)"/>
</g>
<g filter="url(#filter2_dd_301_495)">
<path d="M73 -9.01554C73 -10.1115 73.8885 -11 74.9845 -11H208.138C209.234 -11 210.122 -10.1115 210.122 -9.01553V112.331C210.122 113.322 209.392 114.161 208.41 114.297L75.2567 132.735C74.0638 132.9 73 131.974 73 130.769V-9.01554Z" fill="url(#paint1_linear_301_495)"/>
</g>
</g>
<path d="M112.61 28.592V39.888C112.61 41.936 112.088 43.5253 111.042 44.656C109.997 45.7867 108.557 46.352 106.722 46.352H105.698C103.778 46.352 102.306 45.7973 101.282 44.688C100.258 43.5573 99.7464 41.9573 99.7464 39.888V28.592C99.7464 24.112 101.72 21.872 105.666 21.872H106.69C110.637 21.872 112.61 24.112 112.61 28.592ZM107.138 40.24V28.048C107.138 27.152 106.818 26.704 106.178 26.704C105.538 26.704 105.218 27.152 105.218 28.048V40.24C105.218 41.0293 105.549 41.424 106.21 41.424C106.829 41.424 107.138 41.0293 107.138 40.24ZM120.569 46V36.4H118.745V46H113.465V22.192H118.745V30.832H120.569V22.192H125.849V46H120.569ZM127.927 39.312C128.076 36.1333 128.151 30.4267 128.151 22.192H139.671V46H134.391V27.12H132.951C132.951 33.52 132.865 38.1173 132.695 40.912C132.567 42.8107 132.129 44.1333 131.383 44.88C130.657 45.6267 129.377 46 127.543 46H126.551V40.912H126.807C127.233 40.912 127.521 40.7947 127.671 40.56C127.82 40.304 127.905 39.888 127.927 39.312ZM147.883 46L147.499 42.512H145.067L144.715 46H140.139L143.179 22.192H149.675L153.003 46H147.883ZM146.283 30.576L145.547 37.808H147.019L146.283 30.576ZM158.206 22.192V34.096L160.766 22.192H165.694V46H160.766V34.16L158.206 46H153.278V22.192H158.206ZM159.646 21.552H159.486C158.291 21.552 157.342 21.2213 156.638 20.56C155.955 19.8987 155.614 19.024 155.614 17.936V17.68H158.782V17.872C158.782 18.448 159.038 18.736 159.55 18.736H159.582C160.094 18.736 160.35 18.448 160.35 17.872V17.68H163.486V17.936C163.486 19.0027 163.123 19.8773 162.398 20.56C161.694 21.2213 160.776 21.552 159.646 21.552ZM173.819 46V36.4H171.995V46H166.715V22.192H171.995V30.832H173.819V22.192H179.099V46H173.819ZM180.089 34.096H185.625V38.768H180.089V34.096ZM98.6474 51.192H109.847V56.12H106.871V75H101.623V56.12H98.6474V51.192ZM118.368 65.816H115.84V75H110.592V51.192H118.208C119.765 51.192 120.896 51.5867 121.6 52.376C122.325 53.1653 122.688 54.3707 122.688 55.992V60.92C122.688 62.4773 122.304 63.6827 121.536 64.536C120.789 65.3893 119.733 65.816 118.368 65.816ZM115.84 55.352V61.432H116.48C116.842 61.432 117.088 61.3467 117.216 61.176C117.344 60.984 117.408 60.6853 117.408 60.28V56.536C117.408 56.1307 117.344 55.832 117.216 55.64C117.088 55.448 116.842 55.352 116.48 55.352H115.84ZM123.529 51.192H133.417V56.12H128.745V60.184H132.489V65.24H128.745V69.976H133.609V75H123.529V51.192ZM141.382 75V65.4H139.558V75H134.278V51.192H139.558V59.832H141.382V51.192H146.662V75H141.382ZM152.643 51.192V63.096L155.203 51.192H160.131V75H155.203V63.16L152.643 75H147.715V51.192H152.643ZM168.257 75V65.4H166.433V75H161.153V51.192H166.433V59.832H168.257V51.192H173.537V75H168.257ZM174.59 75V51.192H184.35V56.12H179.806V75H174.59Z" fill="url(#paint2_linear_301_495)"/>
<path d="M92.0144 105V87.2333H98.5336V89.8123H94.7128V94.1107H96.2889C98.1356 94.1107 99.059 95.2012 99.059 97.3823V101.896C99.059 102.962 98.8361 103.75 98.3904 104.26C97.9446 104.753 97.2441 105 96.2889 105H92.0144ZM94.7128 102.421H95.4054C95.7715 102.421 96.0183 102.317 96.1456 102.111C96.273 101.904 96.3367 101.601 96.3367 101.203V97.9793C96.3367 97.5494 96.273 97.231 96.1456 97.0241C96.0342 96.8012 95.7874 96.6898 95.4054 96.6898H94.7128V102.421ZM99.9444 87.2333H106.082V89.8123H102.643V94.4689H105.341V97.1674H102.643V102.302H106.225V105H99.9444V87.2333ZM109.377 90.7198V93.5376H106.726V90.5287C106.726 89.4939 106.989 88.6581 107.514 88.0213C108.04 87.3845 108.812 87.0661 109.831 87.0661H110.38C111.542 87.0661 112.378 87.3288 112.887 87.8542C113.397 88.3795 113.651 89.1676 113.651 90.2183V93.1794C113.651 94.3893 113.206 95.1774 112.314 95.5435C113.349 95.8619 113.866 96.7296 113.866 98.1464V101.943C113.866 102.867 113.604 103.647 113.078 104.284C112.553 104.904 111.733 105.215 110.619 105.215H109.902C108.915 105.215 108.135 104.904 107.562 104.284C107.005 103.663 106.726 102.954 106.726 102.158V98.2658H109.377V101.633C109.377 102.27 109.671 102.588 110.26 102.588C110.834 102.588 111.12 102.27 111.12 101.633V98.027C111.12 97.4539 110.841 97.1674 110.284 97.1674H109.066V94.4689H110.284C110.698 94.4689 110.905 94.0391 110.905 93.1794V90.7198C110.905 90.0034 110.65 89.6452 110.141 89.6452C109.632 89.6452 109.377 90.0034 109.377 90.7198ZM119.672 105L117.427 97.2868V105H114.728V87.2333H117.427V94.3495L119.552 87.2333H122.179L119.672 95.4958L122.442 105H119.672ZM130.152 91.1257V101.036C130.152 103.822 129.006 105.215 126.714 105.215H126.26C123.935 105.215 122.773 103.822 122.773 101.036V91.1496C122.773 88.4273 123.928 87.0661 126.236 87.0661H126.69C127.931 87.0661 128.815 87.4164 129.34 88.1168C129.882 88.8173 130.152 89.8203 130.152 91.1257ZM127.406 101.227V91.0063C127.406 90.0989 127.096 89.6452 126.475 89.6452C125.838 89.6452 125.52 90.0989 125.52 91.0063V101.227C125.52 102.134 125.846 102.588 126.499 102.588C127.104 102.588 127.406 102.134 127.406 101.227ZM131.029 105V87.2333H133.728V102.302H135.256V87.2333H137.954V102.302H139.483V87.2333H142.181V105H131.029ZM142.893 87.2333H150.104V89.8123H147.836V105H145.161V89.8123H142.893V87.2333ZM158.09 91.1257V101.036C158.09 103.822 156.944 105.215 154.651 105.215H154.198C151.873 105.215 150.711 103.822 150.711 101.036V91.1496C150.711 88.4273 151.865 87.0661 154.174 87.0661H154.627C155.869 87.0661 156.753 87.4164 157.278 88.1168C157.819 88.8173 158.09 89.8203 158.09 91.1257ZM155.344 101.227V91.0063C155.344 90.0989 155.033 89.6452 154.412 89.6452C153.776 89.6452 153.457 90.0989 153.457 91.0063V101.227C153.457 102.134 153.784 102.588 154.436 102.588C155.041 102.588 155.344 102.134 155.344 101.227ZM159.015 105V87.2333H163.265C164.316 87.2333 165.048 87.48 165.462 87.9736C165.892 88.4671 166.107 89.1835 166.107 90.1228V92.8451C166.107 94.1505 165.661 94.9704 164.77 95.3047C165.805 95.7027 166.322 96.5704 166.322 97.9076V101.752C166.322 102.755 166.083 103.551 165.606 104.14C165.144 104.713 164.428 105 163.456 105H159.015ZM162.525 96.9047H161.713V102.493H162.525C162.939 102.493 163.218 102.397 163.361 102.206C163.504 102.015 163.576 101.713 163.576 101.299V98.0509C163.576 97.6529 163.504 97.3664 163.361 97.1912C163.218 97.0002 162.939 96.9047 162.525 96.9047ZM162.525 89.6452H161.713V94.254H162.525C163.146 94.254 163.456 93.8401 163.456 93.0122V90.7675C163.456 90.3695 163.385 90.083 163.242 89.9078C163.114 89.7327 162.875 89.6452 162.525 89.6452ZM169.804 97.1912V105H167.106V87.2333H169.804V94.3495H171.643V87.2333H174.341V105H171.643V97.1912H169.804ZM179.971 105V95.3764L178.036 105H175.338V87.2333H178.036V96.8569L179.971 87.2333H182.669V105H179.971ZM188.296 105V95.3764L186.362 105H183.663V87.2333H186.362V96.8569L188.296 87.2333H190.994V105H188.296ZM187.341 86.6124H187.269C186.569 86.6124 185.996 86.4134 185.55 86.0154C185.12 85.6174 184.905 85.0682 184.905 84.3677V84.2244H186.744V84.3199C186.744 84.7498 186.927 84.9647 187.293 84.9647H187.317C187.699 84.9647 187.89 84.7498 187.89 84.3199V84.2244H189.705V84.3677C189.705 85.0682 189.474 85.6174 189.012 86.0154C188.551 86.4134 187.993 86.6124 187.341 86.6124Z" fill="url(#paint3_linear_301_495)"/>
<defs>
<filter id="filter0_d_301_495" x="65.661" y="-11" width="151.801" height="164.387" filterUnits="userSpaceOnUse" color-interpolation-filters="sRGB">
<feFlood flood-opacity="0" result="BackgroundImageFix"/>
<feColorMatrix in="SourceAlpha" type="matrix" values="0 0 0 0 0 0 0 0 0 0 0 0 0 0 0 0 0 0 127 0" result="hardAlpha"/>
<feOffset dy="7.33898"/>
<feGaussianBlur stdDeviation="3.66949"/>
<feComposite in2="hardAlpha" operator="out"/>
<feColorMatrix type="matrix" values="0 0 0 0 0 0 0 0 0 0 0 0 0 0 0 0 0 0 0.25 0"/>
<feBlend mode="normal" in2="BackgroundImageFix" result="effect1_dropShadow_301_495"/>
<feBlend mode="normal" in="SourceGraphic" in2="effect1_dropShadow_301_495" result="shape"/>
</filter>
<filter id="filter1_dddddd_301_495" x="0.73864" y="25.905" width="281.645" height="307.531" filterUnits="userSpaceOnUse" color-interpolation-filters="sRGB">
<feFlood flood-opacity="0" result="BackgroundImageFix"/>
<feColorMatrix in="SourceAlpha" type="matrix" values="0 0 0 0 0 0 0 0 0 0 0 0 0 0 0 0 0 0 127 0" result="hardAlpha"/>
<feOffset dy="2.99365"/>
<feGaussianBlur stdDeviation="1.19746"/>
<feColorMatrix type="matrix" values="0 0 0 0 0 0 0 0 0 0 0 0 0 0 0 0 0 0 0.0140573 0"/>
<feBlend mode="normal" in2="BackgroundImageFix" result="effect1_dropShadow_301_495"/>
<feColorMatrix in="SourceAlpha" type="matrix" values="0 0 0 0 0 0 0 0 0 0 0 0 0 0 0 0 0 0 127 0" result="hardAlpha"/>
<feOffset dy="7.19417"/>
<feGaussianBlur stdDeviation="2.87767"/>
<feColorMatrix type="matrix" values="0 0 0 0 0 0 0 0 0 0 0 0 0 0 0 0 0 0 0.0201946 0"/>
<feBlend mode="normal" in2="effect1_dropShadow_301_495" result="effect2_dropShadow_301_495"/>
<feColorMatrix in="SourceAlpha" type="matrix" values="0 0 0 0 0 0 0 0 0 0 0 0 0 0 0 0 0 0 127 0" result="hardAlpha"/>
<feOffset dy="13.546"/>
<feGaussianBlur stdDeviation="5.41839"/>
<feColorMatrix type="matrix" values="0 0 0 0 0 0 0 0 0 0 0 0 0 0 0 0 0 0 0.025 0"/>
<feBlend mode="normal" in2="effect2_dropShadow_301_495" result="effect3_dropShadow_301_495"/>
<feColorMatrix in="SourceAlpha" type="matrix" values="0 0 0 0 0 0 0 0 0 0 0 0 0 0 0 0 0 0 127 0" result="hardAlpha"/>
<feOffset dy="24.1637"/>
<feGaussianBlur stdDeviation="9.66549"/>
<feColorMatrix type="matrix" values="0 0 0 0 0 0 0 0 0 0 0 0 0 0 0 0 0 0 0.0298054 0"/>
<feBlend mode="normal" in2="effect3_dropShadow_301_495" result="effect4_dropShadow_301_495"/>
<feColorMatrix in="SourceAlpha" type="matrix" values="0 0 0 0 0 0 0 0 0 0 0 0 0 0 0 0 0 0 127 0" result="hardAlpha"/>
<feOffset dy="45.1956"/>
<feGaussianBlur stdDeviation="18.0782"/>
<feColorMatrix type="matrix" values="0 0 0 0 0 0 0 0 0 0 0 0 0 0 0 0 0 0 0.0359427 0"/>
<feBlend mode="normal" in2="effect4_dropShadow_301_495" result="effect5_dropShadow_301_495"/>
<feColorMatrix in="SourceAlpha" type="matrix" values="0 0 0 0 0 0 0 0 0 0 0 0 0 0 0 0 0 0 127 0" result="hardAlpha"/>
<feOffset dy="108.181"/>
<feGaussianBlur stdDeviation="43.2725"/>
<feColorMatrix type="matrix" values="0 0 0 0 0 0 0 0 0 0 0 0 0 0 0 0 0 0 0.05 0"/>
<feBlend mode="normal" in2="effect5_dropShadow_301_495" result="effect6_dropShadow_301_495"/>
<feBlend mode="normal" in="SourceGraphic" in2="effect6_dropShadow_301_495" result="shape"/>
</filter>
<filter id="filter2_dd_301_495" x="24.3184" y="-55.3543" width="234.486" height="241.117" filterUnits="userSpaceOnUse" color-interpolation-filters="sRGB">
<feFlood flood-opacity="0" result="BackgroundImageFix"/>
<feColorMatrix in="SourceAlpha" type="matrix" values="0 0 0 0 0 0 0 0 0 0 0 0 0 0 0 0 0 0 127 0" result="hardAlpha"/>
<feOffset dy="4.32725"/>
<feGaussianBlur stdDeviation="24.3408"/>
<feComposite in2="hardAlpha" operator="out"/>
<feColorMatrix type="matrix" values="0 0 0 0 0 0 0 0 0 0 0 0 0 0 0 0 0 0 0.05 0"/>
<feBlend mode="normal" in2="BackgroundImageFix" result="effect1_dropShadow_301_495"/>
<feColorMatrix in="SourceAlpha" type="matrix" values="0 0 0 0 0 0 0 0 0 0 0 0 0 0 0 0 0 0 127 0" result="hardAlpha"/>
<feOffset dy="3.99564"/>
<feGaussianBlur stdDeviation="1.99782"/>
<feComposite in2="hardAlpha" operator="out"/>
<feColorMatrix type="matrix" values="0 0 0 0 0 0 0 0 0 0 0 0 0 0 0 0 0 0 0.11 0"/>
<feBlend mode="normal" in2="effect1_dropShadow_301_495" result="effect2_dropShadow_301_495"/>
<feBlend mode="normal" in="SourceGraphic" in2="effect2_dropShadow_301_495" result="shape"/>
</filter>
<linearGradient id="paint0_linear_301_495" x1="272.37" y1="-31.9849" x2="90.6323" y2="109.773" gradientUnits="userSpaceOnUse">
<stop stop-color="#D80023"/>
<stop offset="0.370128" stop-color="#FC2144"/>
<stop offset="0.605261" stop-color="#D80023"/>
<stop offset="1" stop-color="#FF0000"/>
</linearGradient>
<linearGradient id="paint1_linear_301_495" x1="306.793" y1="-84.7335" x2="75.7914" y2="93.9619" gradientUnits="userSpaceOnUse">
<stop stop-color="#D80023"/>
<stop offset="0.370128" stop-color="#FC2144"/>
<stop offset="0.605261" stop-color="#D80023"/>
<stop offset="1" stop-color="#FF0000"/>
</linearGradient>
<linearGradient id="paint2_linear_301_495" x1="209.384" y1="50.2685" x2="73.3814" y2="50.2685" gradientUnits="userSpaceOnUse">
<stop stop-color="white" stop-opacity="0.77"/>
<stop offset="0.370128" stop-color="white"/>
<stop offset="0.605261" stop-color="white"/>
<stop offset="1" stop-color="white" stop-opacity="0.8"/>
</linearGradient>
<linearGradient id="paint3_linear_301_495" x1="229.215" y1="97.3171" x2="53.4815" y2="97.3171" gradientUnits="userSpaceOnUse">
<stop stop-color="white" stop-opacity="0.77"/>
<stop offset="0.370128" stop-color="white"/>
<stop offset="0.605261" stop-color="white"/>
<stop offset="1" stop-color="white" stop-opacity="0.8"/>
</linearGradient>
</defs>
</svg>
