<svg width="667" height="278" viewBox="0 0 667 278" fill="none" xmlns="http://www.w3.org/2000/svg">
<path d="M21.6829 54.4349V40.4111H37.0244V54.9055C37.0244 59.7997 35.6754 63.9096 32.9773 67.2352C30.3419 70.498 26.1693 72.1294 20.4593 72.1294H17.7298C6.24723 72.1294 0.505917 65.9489 0.505917 53.5878V18.0105C0.505917 12.5516 1.85497 8.1907 4.55307 4.92788C7.31392 1.66506 11.6748 0.0336495 17.6357 0.0336495H20.4593C31.5027 0.0336495 37.0244 5.4926 37.0244 16.4105V27.8931H21.6829V17.0693C21.6829 14.7477 20.8358 13.5869 19.1416 13.5869C18.2004 13.5869 17.5416 13.8379 17.1651 14.3399C16.7886 14.8418 16.6004 15.7517 16.6004 17.0693V54.4349C16.6004 56.882 17.4789 58.1056 19.2358 58.1056C20.8672 58.1056 21.6829 56.882 21.6829 54.4349ZM39.6656 71V0.974847H63.1956C67.3369 0.974847 70.4115 2.01016 72.4194 4.0808C74.49 6.15144 75.5253 9.50838 75.5253 14.1516V21.8694C75.5253 24.8185 74.8037 27.2029 73.3605 29.0226C71.9801 30.8422 70.537 32.003 69.031 32.505C74.239 34.1364 76.843 38.1208 76.843 44.4582V54.8114C76.843 65.6038 72.6076 71 64.1368 71H39.6656ZM57.7367 40.1287H55.1954V58.5762H58.019C58.9602 58.5762 59.6191 58.3252 59.9955 57.8232C60.4348 57.2585 60.6544 56.2546 60.6544 54.8114V43.7052C60.6544 42.3876 60.4348 41.4777 59.9955 40.9758C59.6191 40.4111 58.8661 40.1287 57.7367 40.1287ZM57.4543 12.9281H55.1954V27.9872H57.3602C59.2426 27.9872 60.1838 26.8264 60.1838 24.5048V16.2223C60.1838 15.0928 59.9955 14.2771 59.6191 13.7751C59.2426 13.2104 58.521 12.9281 57.4543 12.9281ZM116.837 19.7988V53.0231C116.837 59.0468 115.299 63.7214 112.225 67.047C109.15 70.3725 104.915 72.0353 99.5185 72.0353H96.5067C90.8595 72.0353 86.53 70.4039 83.5181 67.1411C80.5063 63.8155 79.0004 59.1095 79.0004 53.0231V19.7988C79.0004 6.62204 84.8044 0.0336495 96.4126 0.0336495H99.4244C111.033 0.0336495 116.837 6.62204 116.837 19.7988ZM100.742 54.0584V18.1988C100.742 15.5634 99.8009 14.2457 97.9185 14.2457C96.0361 14.2457 95.0949 15.5634 95.0949 18.1988V54.0584C95.0949 56.3801 96.0674 57.5409 98.0126 57.5409C99.8322 57.5409 100.742 56.3801 100.742 54.0584ZM119.351 71V0.974847H148.057V15.4693H134.692V71H119.351ZM188.254 19.7988V53.0231C188.254 59.0468 186.716 63.7214 183.642 67.047C180.567 70.3725 176.332 72.0353 170.936 72.0353H167.924C162.277 72.0353 157.947 70.4039 154.935 67.1411C151.923 63.8155 150.417 59.1095 150.417 53.0231V19.7988C150.417 6.62204 156.222 0.0336495 167.83 0.0336495H170.841C182.45 0.0336495 188.254 6.62204 188.254 19.7988ZM172.159 54.0584V18.1988C172.159 15.5634 171.218 14.2457 169.336 14.2457C167.453 14.2457 166.512 15.5634 166.512 18.1988V54.0584C166.512 56.3801 167.485 57.5409 169.43 57.5409C171.249 57.5409 172.159 56.3801 172.159 54.0584ZM201.062 71V0.974847H233.157V15.4693H216.498V26.7637H223.933C227.949 26.7637 231.055 28.0186 233.251 30.5285C235.51 33.0383 236.639 36.6149 236.639 41.2581V56.882C236.639 61.6508 235.573 65.1959 233.439 67.5176C231.369 69.8392 228.043 71 223.463 71H201.062ZM216.498 58.7644H218.38C219.447 58.7644 220.168 58.4821 220.545 57.9173C220.921 57.3526 221.11 56.4742 221.11 55.282V43.0464C221.11 41.8542 220.921 41.0071 220.545 40.5052C220.168 39.9405 219.447 39.6581 218.38 39.6581H216.498V58.7644ZM254.74 0.974847V71H239.211V0.974847H254.74ZM272.366 15.9399V23.1871H257.307V14.0575C257.307 10.1045 258.593 6.81027 261.166 4.17492C263.801 1.47682 267.785 0.127768 273.119 0.127768H275.848C286.578 0.127768 291.943 4.77101 291.943 14.0575V21.0224C291.943 25.4774 290.343 28.8971 287.143 31.2814C288.837 31.8462 290.186 32.9128 291.19 34.4815C292.194 36.0502 292.696 37.9639 292.696 40.2228V56.3173C292.696 61.337 291.253 65.2273 288.366 67.9882C285.48 70.6863 281.433 72.0353 276.225 72.0353H273.684C267.848 72.0353 263.613 70.7176 260.977 68.0823C258.405 65.3842 257.118 62.09 257.118 58.1997V45.0229H272.46V55.3761C272.46 57.0703 273.182 57.9173 274.625 57.9173C276.068 57.9173 276.79 57.0703 276.79 55.3761V43.4229C276.79 42.4817 276.664 41.8542 276.413 41.5405C276.162 41.2268 275.597 41.0699 274.719 41.0699H267.283V26.8578H274.154C275.66 26.8578 276.413 26.0421 276.413 24.4107V15.9399C276.413 14.9987 276.256 14.3399 275.942 13.9634C275.629 13.5869 275.095 13.3987 274.342 13.3987C273.025 13.3987 272.366 14.2457 272.366 15.9399ZM315.985 71V42.7641H310.62V71H295.09V0.974847H310.62V26.3872H315.985V0.974847H331.514V71H315.985ZM334.801 0.974847H363.884V15.4693H350.143V27.4225H361.155V42.2935H350.143V56.2232H364.449V71H334.801V0.974847ZM387.133 54.4349V40.4111H402.474V54.9055C402.474 59.7997 401.125 63.9096 398.427 67.2352C395.792 70.498 391.619 72.1294 385.909 72.1294H383.179C371.697 72.1294 365.956 65.9489 365.956 53.5878V18.0105C365.956 12.5516 367.305 8.1907 370.003 4.92788C372.764 1.66506 377.124 0.0336495 383.085 0.0336495H385.909C396.952 0.0336495 402.474 5.4926 402.474 16.4105V27.8931H387.133V17.0693C387.133 14.7477 386.285 13.5869 384.591 13.5869C383.65 13.5869 382.991 13.8379 382.615 14.3399C382.238 14.8418 382.05 15.7517 382.05 17.0693V54.4349C382.05 56.882 382.929 58.1056 384.685 58.1056C386.317 58.1056 387.133 56.882 387.133 54.4349ZM438.178 0.974847L426.13 63.2822C425.127 68.4274 422.554 71 418.413 71H405.895V58.1997H410.318C411.009 58.1997 411.448 58.0742 411.636 57.8232C411.887 57.5095 412.075 56.9448 412.201 56.1291L412.295 54.9055C412.295 53.7133 412.138 52.4898 411.824 51.2348L401.659 0.974847H417.001L420.389 28.9284L423.401 0.974847H438.178ZM15.2827 112.94V120.187H0.223558V111.058C0.223558 107.104 1.50986 103.81 4.08247 101.175C6.71783 98.4768 10.7022 97.1278 16.0357 97.1278H18.7652C29.4948 97.1278 34.8597 101.771 34.8597 111.058V118.022C34.8597 122.477 33.2596 125.897 30.0595 128.281C31.7537 128.846 33.1028 129.913 34.1067 131.482C35.1106 133.05 35.6126 134.964 35.6126 137.223V153.317C35.6126 158.337 34.1694 162.227 31.2831 164.988C28.3968 167.686 24.3496 169.035 19.1416 169.035H16.6004C10.765 169.035 6.52959 167.718 3.89423 165.082C1.32162 162.384 0.0353182 159.09 0.0353182 155.2V142.023H15.3769V152.376C15.3769 154.07 16.0984 154.917 17.5416 154.917C18.9848 154.917 19.7064 154.07 19.7064 152.376V140.423C19.7064 139.482 19.5809 138.854 19.3299 138.54C19.0789 138.227 18.5142 138.07 17.6357 138.07H10.2003V123.858H17.071C18.5769 123.858 19.3299 123.042 19.3299 121.411V112.94C19.3299 111.999 19.173 111.34 18.8593 110.963C18.5456 110.587 18.0122 110.399 17.2592 110.399C15.9416 110.399 15.2827 111.246 15.2827 112.94ZM53.7248 97.9748V168H38.195V97.9748H53.7248ZM0.505917 265V194.975H36.3656V265H20.8358V209.469H16.0357V265H0.505917ZM62.4449 237.988H55.0094V265H39.5737V194.975H61.9743C66.5548 194.975 69.8803 196.136 71.951 198.457C74.0843 200.779 75.151 204.324 75.151 209.093V223.587C75.151 228.168 74.0216 231.713 71.7627 234.223C69.5666 236.733 66.4606 237.988 62.4449 237.988ZM55.0094 207.21V225.093H56.8918C57.9585 225.093 58.6801 224.842 59.0565 224.34C59.433 223.776 59.6213 222.897 59.6213 221.705V210.693C59.6213 209.501 59.433 208.622 59.0565 208.058C58.6801 207.493 57.9585 207.21 56.8918 207.21H55.0094ZM91.9323 194.975V229.987L99.4619 194.975H113.956V265H99.4619V230.176L91.9323 265H77.4378V194.975H91.9323ZM116.961 265V194.975H149.056V209.469H132.396V220.764H139.832C143.848 220.764 146.954 222.019 149.15 224.528C151.409 227.038 152.538 230.615 152.538 235.258V250.882C152.538 255.651 151.471 259.196 149.338 261.518C147.267 263.839 143.942 265 139.361 265H116.961ZM132.396 252.764H134.279C135.346 252.764 136.067 252.482 136.444 251.917C136.82 251.353 137.008 250.474 137.008 249.282V237.046C137.008 235.854 136.82 235.007 136.444 234.505C136.067 233.94 135.346 233.658 134.279 233.658H132.396V252.764ZM187.161 194.975L175.114 257.282C174.11 262.427 171.537 265 167.396 265H154.878V252.2H159.302C159.992 252.2 160.431 252.074 160.619 251.823C160.87 251.509 161.058 250.945 161.184 250.129L161.278 248.906C161.278 247.713 161.121 246.49 160.807 245.235L150.642 194.975H165.984L169.372 222.928L172.384 194.975H187.161ZM187.627 194.975H220.569V209.469H211.816V265H196.38V209.469H187.627V194.975ZM245.347 265L238.382 237.046V265H222.852V194.975H238.382V219.822L245.629 194.975H261.065L251.559 226.129L261.63 265H245.347ZM298.183 213.799V247.023C298.183 253.047 296.645 257.721 293.571 261.047C290.496 264.373 286.261 266.035 280.865 266.035H277.853C272.206 266.035 267.876 264.404 264.864 261.141C261.852 257.816 260.346 253.11 260.346 247.023V213.799C260.346 200.622 266.151 194.034 277.759 194.034H280.77C292.379 194.034 298.183 200.622 298.183 213.799ZM282.088 248.058V212.199C282.088 209.563 281.147 208.246 279.265 208.246C277.382 208.246 276.441 209.563 276.441 212.199V248.058C276.441 250.38 277.414 251.541 279.359 251.541C281.178 251.541 282.088 250.38 282.088 248.058ZM300.885 265V194.975H319.427L323.285 227.729L327.333 194.975H344.839V265H331.474V226.787L325.544 265H319.991L314.062 226.787V265H300.885ZM364.922 215.869H357.392V202.881C360.78 202.881 363.196 202.191 364.639 200.81C366.145 199.43 366.992 197.485 367.181 194.975H380.357V265H364.922V215.869ZM420.776 213.799V247.211C420.776 253.235 419.239 257.878 416.164 261.141C413.152 264.404 408.98 266.035 403.646 266.035H400.634C395.175 266.035 391.003 264.404 388.116 261.141C385.23 257.816 383.787 253.172 383.787 247.211V213.799C383.787 200.622 389.434 194.034 400.728 194.034H403.646C415.066 194.034 420.776 200.622 420.776 213.799ZM404.587 248.247V211.822C404.587 209.438 403.772 208.246 402.14 208.246C400.634 208.246 399.881 209.438 399.881 211.822V248.247C399.881 250.443 400.634 251.541 402.14 251.541C403.772 251.541 404.587 250.443 404.587 248.247ZM460.667 213.799V247.211C460.667 253.235 459.129 257.878 456.055 261.141C453.043 264.404 448.87 266.035 443.537 266.035H440.525C435.066 266.035 430.893 264.404 428.007 261.141C425.121 257.816 423.677 253.172 423.677 247.211V213.799C423.677 200.622 429.325 194.034 440.619 194.034H443.537C454.957 194.034 460.667 200.622 460.667 213.799ZM444.478 248.247V211.822C444.478 209.438 443.662 208.246 442.031 208.246C440.525 208.246 439.772 209.438 439.772 211.822V248.247C439.772 250.443 440.525 251.541 442.031 251.541C443.662 251.541 444.478 250.443 444.478 248.247ZM500.557 213.799V247.211C500.557 253.235 499.02 257.878 495.945 261.141C492.933 264.404 488.761 266.035 483.427 266.035H480.416C474.957 266.035 470.784 264.404 467.898 261.141C465.011 257.816 463.568 253.172 463.568 247.211V213.799C463.568 200.622 469.215 194.034 480.51 194.034H483.427C494.847 194.034 500.557 200.622 500.557 213.799ZM484.369 248.247V211.822C484.369 209.438 483.553 208.246 481.921 208.246C480.416 208.246 479.663 209.438 479.663 211.822V248.247C479.663 250.443 480.416 251.541 481.921 251.541C483.553 251.541 484.369 250.443 484.369 248.247ZM519.083 271.871V266.035C508.29 265.973 502.894 260.859 502.894 250.694V239.117H517.012V250.129C517.012 252.262 517.702 253.612 519.083 254.176V236.858L511.365 230.646C508.416 228.262 506.314 225.627 505.059 222.74C503.804 219.854 503.176 216.309 503.176 212.105V209.281C503.176 204.324 504.525 200.559 507.224 197.987C509.984 195.414 513.937 194.096 519.083 194.034V188.575H522.283V194.034C527.742 194.096 531.663 195.289 534.048 197.61C536.495 199.932 537.718 203.634 537.718 208.716V216.999H524.165V208.999C524.165 206.865 523.538 205.642 522.283 205.328V220.575L530.095 226.787C533.546 229.611 535.93 232.403 537.248 235.164C538.628 237.862 539.318 241.407 539.318 245.8V249C539.318 254.333 537.812 258.506 534.801 261.518C531.852 264.467 527.679 265.973 522.283 266.035V271.871H519.083ZM524.636 249.564V246.835C524.636 245.015 524.479 243.635 524.165 242.694C523.851 241.752 523.224 240.78 522.283 239.776V254.27C523.851 253.831 524.636 252.262 524.636 249.564ZM517.2 209.093V211.163C517.2 213.987 517.828 216.152 519.083 217.658V205.328C517.828 205.642 517.2 206.897 517.2 209.093ZM562.684 188.951L549.695 277.33H539.154L552.236 188.951H562.684ZM564.31 265V194.975H582.852L586.711 227.729L590.758 194.975H608.264V265H594.899V226.787L588.97 265H583.417L577.487 226.787V265H564.31ZM626.9 194.975V265H611.37V194.975H626.9ZM650.925 248.435V234.411H666.267V248.906C666.267 253.8 664.918 257.91 662.22 261.235C659.584 264.498 655.412 266.129 649.702 266.129H646.972C635.49 266.129 629.748 259.949 629.748 247.588V212.011C629.748 206.552 631.097 202.191 633.796 198.928C636.556 195.665 640.917 194.034 646.878 194.034H649.702C660.745 194.034 666.267 199.493 666.267 210.41V221.893H650.925V211.069C650.925 208.748 650.078 207.587 648.384 207.587C647.443 207.587 646.784 207.838 646.408 208.34C646.031 208.842 645.843 209.752 645.843 211.069V248.435C645.843 250.882 646.721 252.106 648.478 252.106C650.11 252.106 650.925 250.882 650.925 248.435Z" fill="black"/>
<path d="M88.0447 151.435V137.411H103.386V151.906C103.386 156.8 102.037 160.91 99.3391 164.235C96.7037 167.498 92.5311 169.129 86.8212 169.129H84.0917C72.6091 169.129 66.8677 162.949 66.8677 150.588V115.011C66.8677 109.552 68.2168 105.191 70.9149 101.928C73.6758 98.6651 78.0366 97.0336 83.9976 97.0336H86.8212C97.8645 97.0336 103.386 102.493 103.386 113.41V124.893H88.0447V114.069C88.0447 111.748 87.1976 110.587 85.5035 110.587C84.5623 110.587 83.9034 110.838 83.527 111.34C83.1505 111.842 82.9622 112.752 82.9622 114.069V151.435C82.9622 153.882 83.8407 155.106 85.5976 155.106C87.229 155.106 88.0447 153.882 88.0447 151.435ZM104.997 97.9748H137.939V112.469H129.185V168H113.75V112.469H104.997V97.9748ZM156.61 168L155.481 157.741H148.328L147.292 168H133.833L142.775 97.9748H161.881L171.669 168H156.61ZM151.904 122.634L149.74 143.905H154.069L151.904 122.634ZM172.477 168V97.9748H204.572V112.469H187.912V123.764H195.348C199.364 123.764 202.47 125.019 204.666 127.528C206.925 130.038 208.054 133.615 208.054 138.258V153.882C208.054 158.651 206.987 162.196 204.854 164.518C202.783 166.839 199.458 168 194.877 168H172.477ZM187.912 155.764H189.795C190.862 155.764 191.583 155.482 191.96 154.917C192.336 154.353 192.524 153.474 192.524 152.282V140.046C192.524 138.854 192.336 138.007 191.96 137.505C191.583 136.94 190.862 136.658 189.795 136.658H187.912V155.764ZM226.155 97.9748V168H210.625V97.9748H226.155ZM232.016 148.329C232.455 138.98 232.675 122.195 232.675 97.9748H266.558V168H251.028V112.469H246.793C246.793 131.293 246.542 144.815 246.04 153.035C245.663 158.619 244.377 162.51 242.181 164.706C240.047 166.902 236.282 168 230.886 168H227.969V153.035H228.721C229.976 153.035 230.824 152.69 231.263 152C231.702 151.247 231.953 150.023 232.016 148.329ZM285.065 122.822H292.501C296.517 122.822 299.623 124.077 301.819 126.587C304.078 129.097 305.207 132.674 305.207 137.317V153.882C305.207 158.651 304.14 162.196 302.007 164.518C299.936 166.839 296.611 168 292.03 168H269.63V97.9748H285.065V122.822ZM285.065 155.764H286.948C288.015 155.764 288.736 155.482 289.113 154.917C289.489 154.353 289.677 153.474 289.677 152.282V139.105C289.677 137.913 289.489 137.066 289.113 136.564C288.736 135.999 288.015 135.717 286.948 135.717H285.065V155.764ZM328.577 168V139.764H323.212V168H307.682V97.9748H323.212V123.387H328.577V97.9748H344.107V168H328.577ZM361.7 97.9748V132.987L369.229 97.9748H383.724V168H369.229V133.176L361.7 168H347.205V97.9748H361.7ZM386.916 168V97.9748H405.458L409.317 130.729L413.364 97.9748H430.87V168H417.505V129.787L411.576 168H406.023L400.093 129.787V168H386.916Z" fill="url(#paint0_linear_301_6)"/>
<defs>
<linearGradient id="paint0_linear_301_6" x1="168.07" y1="42.6305" x2="-137.251" y2="54.7585" gradientUnits="userSpaceOnUse">
<stop stop-color="#EC3231"/>
<stop offset="1" stop-color="#F25F5E"/>
</linearGradient>
</defs>
</svg>
