<svg width="166" height="39" viewBox="0 0 166 39" fill="none" xmlns="http://www.w3.org/2000/svg">
<path d="M10.8819 38L7.7739 25.526V38H0.843898V6.752H7.7739V17.84L11.0079 6.752H17.8959L13.6539 20.654L18.1479 38H10.8819ZM18.6027 6.752H31.5807V13.22H25.4487V18.554H30.3627V25.19H25.4487V31.406H31.8327V38H18.6027V6.752ZM39.1781 6.752V22.376L42.5381 6.752H49.0061V38H42.5381V22.46L39.1781 38H32.7101V6.752H39.1781ZM41.0681 5.912H40.8581C39.2901 5.912 38.0441 5.478 37.1201 4.61C36.2241 3.742 35.7761 2.594 35.7761 1.166V0.829998H39.9341V1.082C39.9341 1.838 40.2701 2.216 40.9421 2.216H40.9841C41.6561 2.216 41.9921 1.838 41.9921 1.082V0.829998H46.1081V1.166C46.1081 2.566 45.6321 3.714 44.6801 4.61C43.7561 5.478 42.5521 5.912 41.0681 5.912ZM59.7968 30.608V24.35H66.6428V30.818C66.6428 33.002 66.0408 34.836 64.8368 36.32C63.6608 37.776 61.7988 38.504 59.2508 38.504H58.0328C52.9088 38.504 50.3468 35.746 50.3468 30.23V14.354C50.3468 11.918 50.9488 9.972 52.1528 8.516C53.3848 7.06 55.3308 6.332 57.9908 6.332H59.2508C64.1788 6.332 66.6428 8.768 66.6428 13.64V18.764H59.7968V13.934C59.7968 12.898 59.4188 12.38 58.6628 12.38C58.2428 12.38 57.9488 12.492 57.7808 12.716C57.6128 12.94 57.5288 13.346 57.5288 13.934V30.608C57.5288 31.7 57.9208 32.246 58.7048 32.246C59.4328 32.246 59.7968 31.7 59.7968 30.608ZM74.2054 6.752V22.376L77.5654 6.752H84.0334V38H77.5654V22.46L74.2054 38H67.7374V6.752H74.2054ZM105.298 6.752L99.9219 34.556C99.4739 36.852 98.3259 38 96.4779 38H90.8919V32.288H92.8659C93.1739 32.288 93.3699 32.232 93.4539 32.12C93.5659 31.98 93.6499 31.728 93.7059 31.364L93.7479 30.818C93.7479 30.286 93.6779 29.74 93.5379 29.18L89.0019 6.752H95.8479L97.3599 19.226L98.7039 6.752H105.298ZM121.721 38H114.791V25.4C114.035 25.68 113.055 25.82 111.851 25.82H111.683C107.567 25.82 105.509 23.776 105.509 19.688V6.752H112.397V17.882C112.397 18.582 112.495 19.058 112.691 19.31C112.887 19.534 113.237 19.646 113.741 19.646H113.825C114.273 19.646 114.595 19.59 114.791 19.478V6.752H121.721V38ZM132.392 38V25.4H129.998V38H123.068V6.752H129.998V18.092H132.392V6.752H139.322V38H132.392ZM147.718 6.752V38H140.788V6.752H147.718ZM149.073 38V6.752H159.573C161.421 6.752 162.793 7.214 163.689 8.138C164.613 9.062 165.075 10.56 165.075 12.632V16.076C165.075 17.392 164.753 18.456 164.109 19.268C163.493 20.08 162.849 20.598 162.177 20.822C164.501 21.55 165.663 23.328 165.663 26.156V30.776C165.663 35.592 163.773 38 159.993 38H149.073ZM157.137 24.224H156.003V32.456H157.263C157.683 32.456 157.977 32.344 158.145 32.12C158.341 31.868 158.439 31.42 158.439 30.776V25.82C158.439 25.232 158.341 24.826 158.145 24.602C157.977 24.35 157.641 24.224 157.137 24.224ZM157.011 12.086H156.003V18.806H156.969C157.809 18.806 158.229 18.288 158.229 17.252V13.556C158.229 13.052 158.145 12.688 157.977 12.464C157.809 12.212 157.487 12.086 157.011 12.086Z" fill="url(#paint0_linear_278_1822)"/>
<defs>
<linearGradient id="paint0_linear_278_1822" x1="87.7324" y1="20.3539" x2="170.408" y2="50.1332" gradientUnits="userSpaceOnUse">
<stop stop-color="white"/>
<stop offset="0.51825" stop-color="white" stop-opacity="0.7"/>
<stop offset="1" stop-color="#DDDDDD"/>
</linearGradient>
</defs>
</svg>
