<svg width="433" height="100" viewBox="0 0 433 100" fill="none" xmlns="http://www.w3.org/2000/svg">
<path d="M27.1193 98L18.9793 65.33V98H0.829258V16.16H18.9793V45.2L27.4493 16.16H45.4893L34.3793 52.57L46.1493 98H27.1193ZM47.3404 16.16H81.3304V33.1H65.2704V47.07H78.1404V64.45H65.2704V80.73H81.9904V98H47.3404V16.16ZM101.228 16.16V57.08L110.028 16.16H126.968V98H110.028V57.3L101.228 98H84.2883V16.16H101.228ZM106.178 13.96H105.628C101.522 13.96 98.2583 12.8233 95.8383 10.55C93.4917 8.27666 92.3183 5.27 92.3183 1.53V0.649994H103.208V1.30999C103.208 3.28999 104.088 4.27999 105.848 4.27999H105.958C107.718 4.27999 108.598 3.28999 108.598 1.30999V0.649994H119.378V1.53C119.378 5.19666 118.132 8.20333 115.638 10.55C113.218 12.8233 110.065 13.96 106.178 13.96ZM155.23 78.64V62.25H173.16V79.19C173.16 84.91 171.583 89.7133 168.43 93.6C165.35 97.4133 160.473 99.32 153.8 99.32H150.61C137.19 99.32 130.48 92.0967 130.48 77.65V36.07C130.48 29.69 132.056 24.5933 135.21 20.78C138.436 16.9667 143.533 15.06 150.5 15.06H153.8C166.706 15.06 173.16 21.44 173.16 34.2V47.62H155.23V34.97C155.23 32.2567 154.24 30.9 152.26 30.9C151.16 30.9 150.39 31.1933 149.95 31.78C149.51 32.3667 149.29 33.43 149.29 34.97V78.64C149.29 81.5 150.316 82.93 152.37 82.93C154.276 82.93 155.23 81.5 155.23 78.64ZM192.967 16.16V57.08L201.767 16.16H218.707V98H201.767V57.3L192.967 98H176.027V16.16H192.967ZM274.399 16.16L260.319 88.98C259.146 94.9933 256.139 98 251.299 98H236.669V83.04H241.839C242.646 83.04 243.159 82.8933 243.379 82.6C243.673 82.2333 243.893 81.5733 244.039 80.62L244.149 79.19C244.149 77.7967 243.966 76.3667 243.599 74.9L231.719 16.16H249.649L253.609 48.83L257.129 16.16H274.399ZM317.412 98H299.262V65C297.282 65.7333 294.715 66.1 291.562 66.1H291.122C280.342 66.1 274.952 60.7467 274.952 50.04V16.16H292.992V45.31C292.992 47.1433 293.249 48.39 293.762 49.05C294.275 49.6367 295.192 49.93 296.512 49.93H296.732C297.905 49.93 298.749 49.7833 299.262 49.49V16.16H317.412V98ZM345.359 98V65H339.089V98H320.939V16.16H339.089V45.86H345.359V16.16H363.509V98H345.359ZM385.5 16.16V98H367.35V16.16H385.5ZM389.049 98V16.16H416.549C421.389 16.16 424.983 17.37 427.329 19.79C429.749 22.21 430.959 26.1333 430.959 31.56V40.58C430.959 44.0267 430.116 46.8133 428.429 48.94C426.816 51.0667 425.129 52.4233 423.369 53.01C429.456 54.9167 432.499 59.5733 432.499 66.98V79.08C432.499 91.6933 427.549 98 417.649 98H389.049ZM410.169 61.92H407.199V83.48H410.499C411.599 83.48 412.369 83.1867 412.809 82.6C413.323 81.94 413.579 80.7667 413.579 79.08V66.1C413.579 64.56 413.323 63.4967 412.809 62.91C412.369 62.25 411.489 61.92 410.169 61.92ZM409.839 30.13H407.199V47.73H409.729C411.929 47.73 413.029 46.3733 413.029 43.66V33.98C413.029 32.66 412.809 31.7067 412.369 31.12C411.929 30.46 411.086 30.13 409.839 30.13Z" fill="url(#paint0_linear_301_175)"/>
<defs>
<linearGradient id="paint0_linear_301_175" x1="229.37" y1="50.9749" x2="445.072" y2="136.563" gradientUnits="userSpaceOnUse">
<stop stop-color="white"/>
<stop offset="1" stop-color="white" stop-opacity="0.56"/>
</linearGradient>
</defs>
</svg>
