<svg width="736" height="114" viewBox="0 0 736 114" fill="none" xmlns="http://www.w3.org/2000/svg">
<path d="M40.7591 113.461V99.6284H18.89V113.461H0.314453V78.945H3.60799C4.39844 77.5397 5.01324 73.1484 5.45237 65.7708C5.80369 58.3933 6.155 37.0073 6.50631 1.61269H54.3285V78.945H59.3347V113.461H40.7591ZM24.8184 64.7169C24.3792 70.9527 23.7205 75.9149 22.8423 79.6037H33.3816V21.9009H25.7406C25.2136 48.9518 24.9062 63.2238 24.8184 64.7169ZM66.9767 72.0944C67.5915 59.0081 67.8989 35.5142 67.8989 1.61269H115.326V99.6284H93.5885V21.9009H87.6601C87.6601 48.2492 87.3088 67.1761 86.6062 78.6815C86.0792 86.4982 84.2788 91.9435 81.2048 95.0175C78.2187 98.0914 72.949 99.6284 65.3958 99.6284H61.3118V78.6815H62.3658C64.1223 78.6815 65.308 78.1985 65.9228 77.2324C66.5376 76.1784 66.8889 74.4658 66.9767 72.0944ZM148.741 64.1899H147.292L139.519 99.6284H117.123L127.267 57.9981C122.788 54.9241 120.548 49.6105 120.548 42.0574V21.3739C120.548 14.699 121.997 9.73676 124.896 6.48713C127.882 3.23751 132.581 1.61269 138.992 1.61269H170.346V99.6284H148.741V64.1899ZM148.741 46.1413V18.7391H146.106C144.613 18.7391 143.603 19.1343 143.076 19.9248C142.549 20.7152 142.286 21.9448 142.286 23.6135V41.3986C142.286 43.0674 142.549 44.297 143.076 45.0874C143.603 45.79 144.613 46.1413 146.106 46.1413H148.741ZM220.981 99.6284L211.232 60.5012V99.6284H189.494V1.61269H211.232V36.3925L221.376 1.61269H242.981L229.675 45.2192L243.772 99.6284H220.981ZM294.936 27.961V74.4658C294.936 82.8972 292.784 89.4404 288.481 94.0953C284.177 98.7501 278.249 101.078 270.695 101.078H266.48C258.575 101.078 252.515 98.7941 248.299 94.227C244.084 89.5721 241.976 82.9851 241.976 74.4658V27.961C241.976 9.51719 250.1 0.295279 266.348 0.295279H270.564C286.812 0.295279 294.936 9.51719 294.936 27.961ZM272.408 75.9149V25.7214C272.408 22.0326 271.091 20.1883 268.456 20.1883C265.821 20.1883 264.504 22.0326 264.504 25.7214V75.9149C264.504 79.1646 265.865 80.7894 268.588 80.7894C271.135 80.7894 272.408 79.1646 272.408 75.9149ZM298.455 99.6284V1.61269H338.636V21.9009H319.929V99.6284H298.455ZM394.9 27.961V74.4658C394.9 82.8972 392.748 89.4404 388.445 94.0953C384.141 98.7501 378.213 101.078 370.66 101.078H366.444C358.539 101.078 352.479 98.7941 348.263 94.227C344.048 89.5721 341.94 82.9851 341.94 74.4658V27.961C341.94 9.51719 350.064 0.295279 366.312 0.295279H370.528C386.776 0.295279 394.9 9.51719 394.9 27.961ZM372.372 75.9149V25.7214C372.372 22.0326 371.055 20.1883 368.42 20.1883C365.785 20.1883 364.468 22.0326 364.468 25.7214V75.9149C364.468 79.1646 365.829 80.7894 368.552 80.7894C371.099 80.7894 372.372 79.1646 372.372 75.9149ZM411.906 1.61269H458.016V21.9009H445.764V99.6284H424.158V21.9009H411.906V1.61269ZM493.093 61.8186H482.685V99.6284H461.08V1.61269H492.434C498.845 1.61269 503.5 3.23751 506.399 6.48713C509.385 9.73676 510.878 14.699 510.878 21.3739V41.6621C510.878 48.0736 509.297 53.0358 506.135 56.5489C503.061 60.062 498.714 61.8186 493.093 61.8186ZM482.685 18.7391V43.77H485.32C486.813 43.77 487.823 43.4187 488.35 42.7161C488.877 41.9256 489.14 40.696 489.14 39.0273V23.6135C489.14 21.9448 488.877 20.7152 488.35 19.9248C487.823 19.1343 486.813 18.7391 485.32 18.7391H482.685ZM514.342 1.61269H555.05V21.9009H535.816V38.6321H551.23V59.4472H535.816V78.945H555.841V99.6284H514.342V1.61269ZM587.84 99.6284V60.1059H580.33V99.6284H558.593V1.61269H580.33V37.1829H587.84V1.61269H609.577V99.6284H587.84ZM635.915 1.61269V99.6284H614.178V1.61269H635.915ZM669.149 99.6284V60.1059H661.64V99.6284H639.902V1.61269H661.64V37.1829H669.149V1.61269H690.886V99.6284H669.149ZM695.223 99.6284V1.61269H735.405V21.9009H716.697V99.6284H695.223Z" fill="url(#paint0_linear_301_468)"/>
<defs>
<linearGradient id="paint0_linear_301_468" x1="67.4918" y1="43.6284" x2="795.538" y2="43.6284" gradientUnits="userSpaceOnUse">
<stop stop-color="#0E0E0E"/>
<stop offset="0.536458" stop-color="#595959"/>
<stop offset="1" stop-color="#0E0E0E"/>
</linearGradient>
</defs>
</svg>
