<svg width="246" height="39" viewBox="0 0 246 39" fill="none" xmlns="http://www.w3.org/2000/svg">
<path d="M13.7232 38.4032V33.7832H6.41922V38.4032H0.215218V26.8752H1.31522C1.57922 26.4059 1.78455 24.9392 1.93122 22.4752C2.04855 20.0112 2.16588 12.8685 2.28322 1.0472H18.2552V26.8752H19.9272V38.4032H13.7232ZM8.39922 22.1232C8.25255 24.2059 8.03255 25.8632 7.73922 27.0952H11.2592V7.8232H8.70722C8.53122 16.8579 8.42855 21.6245 8.39922 22.1232ZM22.4796 24.5872C22.6849 20.2165 22.7876 12.3699 22.7876 1.0472H38.6276V33.7832H31.3676V7.8232H29.3876C29.3876 16.6232 29.2702 22.9445 29.0356 26.7872C28.8596 29.3979 28.2582 31.2165 27.2316 32.2432C26.2342 33.2699 24.4742 33.7832 21.9516 33.7832H20.5876V26.7872H20.9396C21.5262 26.7872 21.9222 26.6259 22.1276 26.3032C22.3329 25.9512 22.4502 25.3792 22.4796 24.5872ZM49.7877 21.9472H49.3037L46.7077 33.7832H39.2277L42.6157 19.8792C41.1197 18.8525 40.3717 17.0779 40.3717 14.5552V7.6472C40.3717 5.41787 40.8557 3.76054 41.8237 2.6752C42.8211 1.58987 44.3904 1.0472 46.5317 1.0472H57.0037V33.7832H49.7877V21.9472ZM49.7877 15.9192V6.7672H48.9077C48.4091 6.7672 48.0717 6.8992 47.8957 7.1632C47.7197 7.4272 47.6317 7.83787 47.6317 8.3952V14.3352C47.6317 14.8925 47.7197 15.3032 47.8957 15.5672C48.0717 15.8019 48.4091 15.9192 48.9077 15.9192H49.7877ZM73.9149 33.7832L70.6589 20.7152V33.7832H63.3989V1.0472H70.6589V12.6632L74.0469 1.0472H81.2629L76.8189 15.6112L81.5269 33.7832H73.9149ZM98.615 9.8472V25.3792C98.615 28.1952 97.8964 30.3805 96.459 31.9352C95.0217 33.4899 93.0417 34.2672 90.519 34.2672H89.111C86.471 34.2672 84.447 33.5045 83.039 31.9792C81.631 30.4245 80.927 28.2245 80.927 25.3792V9.8472C80.927 3.6872 83.6404 0.607203 89.067 0.607203H90.475C95.9017 0.607203 98.615 3.6872 98.615 9.8472ZM91.091 25.8632V9.0992C91.091 7.8672 90.651 7.2512 89.771 7.2512C88.891 7.2512 88.451 7.8672 88.451 9.0992V25.8632C88.451 26.9485 88.9057 27.4912 89.815 27.4912C90.6657 27.4912 91.091 26.9485 91.091 25.8632ZM99.7903 33.7832V1.0472H113.21V7.8232H106.962V33.7832H99.7903ZM132.002 9.8472V25.3792C132.002 28.1952 131.283 30.3805 129.846 31.9352C128.408 33.4899 126.428 34.2672 123.906 34.2672H122.498C119.858 34.2672 117.834 33.5045 116.426 31.9792C115.018 30.4245 114.314 28.2245 114.314 25.3792V9.8472C114.314 3.6872 117.027 0.607203 122.454 0.607203H123.862C129.288 0.607203 132.002 3.6872 132.002 9.8472ZM124.478 25.8632V9.0992C124.478 7.8672 124.038 7.2512 123.158 7.2512C122.278 7.2512 121.838 7.8672 121.838 9.0992V25.8632C121.838 26.9485 122.292 27.4912 123.202 27.4912C124.052 27.4912 124.478 26.9485 124.478 25.8632ZM137.682 1.0472H153.082V7.8232H148.99V33.7832H141.774V7.8232H137.682V1.0472ZM164.797 21.1552H161.321V33.7832H154.105V1.0472H164.577C166.718 1.0472 168.273 1.58987 169.241 2.6752C170.238 3.76054 170.737 5.41787 170.737 7.6472V14.4232C170.737 16.5645 170.209 18.2219 169.153 19.3952C168.126 20.5685 166.674 21.1552 164.797 21.1552ZM161.321 6.7672V15.1272H162.201C162.7 15.1272 163.037 15.0099 163.213 14.7752C163.389 14.5112 163.477 14.1005 163.477 13.5432V8.3952C163.477 7.83787 163.389 7.4272 163.213 7.1632C163.037 6.8992 162.7 6.7672 162.201 6.7672H161.321ZM171.894 1.0472H185.49V7.8232H179.066V13.4112H184.214V20.3632H179.066V26.8752H185.754V33.7832H171.894V1.0472ZM196.441 33.7832V20.5832H193.933V33.7832H186.673V1.0472H193.933V12.9272H196.441V1.0472H203.701V33.7832H196.441ZM212.498 1.0472V33.7832H205.238V1.0472H212.498ZM223.597 33.7832V20.5832H221.089V33.7832H213.829V1.0472H221.089V12.9272H223.597V1.0472H230.857V33.7832H223.597ZM232.306 33.7832V1.0472H245.726V7.8232H239.478V33.7832H232.306Z" fill="url(#paint0_linear_278_2229)"/>
<defs>
<linearGradient id="paint0_linear_278_2229" x1="18.3167" y1="15.2832" x2="249.341" y2="15.2832" gradientUnits="userSpaceOnUse">
<stop stop-color="#0E0E0E"/>
<stop offset="0.536458" stop-color="#595959"/>
<stop offset="1" stop-color="#0E0E0E"/>
</linearGradient>
</defs>
</svg>
